<?xml version="1.0" encoding="utf-8"?>
<!-- Generator: Adobe Illustrator 22.0.1, SVG Export Plug-In . SVG Version: 6.00 Build 0)  -->
<svg version="1.1" id="Capa_1" xmlns="http://www.w3.org/2000/svg" xmlns:xlink="http://www.w3.org/1999/xlink" x="0px" y="0px"
	 viewBox="0 0 110 90" style="enable-background:new 0 0 110 90;" xml:space="preserve">
<style type="text/css">
	.st0{fill:url(#SVGID_1_);}
	.st1{fill:url(#SVGID_2_);}
	.st2{fill:#474244;}
	.st3{fill:#B53E45;}
</style>
<g>
	<g>
		<g>
			<g>
				<linearGradient id="SVGID_1_" gradientUnits="userSpaceOnUse" x1="24.6644" y1="7.6499" x2="84.9049" y2="67.8904">
					<stop  offset="0" style="stop-color:#FFFFFF"/>
					<stop  offset="1" style="stop-color:#E2E4E8"/>
				</linearGradient>
				<path class="st0" d="M79.2,70.3H30.4c-4.5,0-8.1-3.6-8.1-8.1V13.4c0-4.5,3.6-8.1,8.1-8.1h48.8c4.5,0,8.1,3.6,8.1,8.1v48.8
					C87.3,66.6,83.6,70.3,79.2,70.3z"/>
				<linearGradient id="SVGID_2_" gradientUnits="userSpaceOnUse" x1="25.0117" y1="7.9971" x2="84.5577" y2="67.5431">
					<stop  offset="0" style="stop-color:#F1F2F4"/>
					<stop  offset="1" style="stop-color:#FFFFFF"/>
				</linearGradient>
				<path class="st1" d="M30.4,69.8c-4.2,0-7.6-3.4-7.6-7.6V13.4c0-4.2,3.4-7.6,7.6-7.6h48.8c4.2,0,7.6,3.4,7.6,7.6v48.8
					c0,4.2-3.4,7.6-7.6,7.6H30.4z"/>
			</g>
		</g>
		<g>
			<path class="st2" d="M35.5,28.2v26.1c0,2.9,2.3,5.2,5.2,5.2h28.1c2.9,0,5.2-2.3,5.2-5.2V34.6l-5.2,6.1v13.5H40.7V35.6
				c0-0.3,0-0.7,0-1v-6.5h23.6l4.3-5.2H40.7C37.8,23,35.5,25.3,35.5,28.2z"/>
			<path class="st3" d="M48.5,33c-1.1-1-2.9-1-4,0.1c-1.2,1.1-1.2,3,0,4.1l10.5,10.7l2.7,2.8l2.4-3l8.8-11.2l5.2-6.6L82.6,19
				c0.7-0.9,0.6-2.3-0.3-3.1C81.4,15,79.9,15.1,79,16l-7.2,8l-3.7,4.2L57.1,40.5L48.5,33z"/>
		</g>
	</g>
	<g>
		<path class="st3" d="M5,84.6v-1l1-0.1c0.2,0,0.2-0.1,0.2-0.3v-6.8c0-0.2,0-0.3-0.2-0.3L5,76V75h4.4V76l-1,0.1
			c-0.2,0-0.2,0.1-0.2,0.3v6.8c0,0.2,0,0.2,0.2,0.3l1,0.1v1H5z"/>
		<path class="st3" d="M17.2,84.6L13,77.7v5.5c0,0.2,0,0.2,0.2,0.3l0.9,0.1v1h-3.7v-1l0.8-0.1c0.2,0,0.2-0.1,0.2-0.3v-6.8
			c0-0.2,0-0.3-0.2-0.3L10.4,76v-1h3.3l4.2,6.9v-5.5c0-0.2,0-0.3-0.2-0.3L16.8,76V75h3.7V76l-0.9,0.1c-0.2,0-0.2,0.1-0.2,0.3v8.2
			H17.2z"/>
		<path class="st3" d="M22.8,84.6v-1l1.4-0.1c0.2,0,0.2-0.1,0.2-0.3v-6.7H23c-0.1,0-0.2,0-0.2,0.1l-0.2,1.2h-1.5V75h8.5v2.7h-1.4
			L28,76.6c0-0.1-0.1-0.1-0.2-0.1h-1.4v6.7c0,0.2,0,0.2,0.2,0.3l1.5,0.1v1H22.8z"/>
		<path class="st3" d="M30.5,84.6v-1l0.8-0.1c0.2,0,0.2-0.1,0.2-0.3v-6.8c0-0.2,0-0.3-0.2-0.3L30.5,76v-1h7v2.7l-1.5-0.1l-0.2-1
			c0-0.1-0.1-0.2-0.2-0.2h-2.1V79h3.1v1.5h-3.1v2.7H36c0.1,0,0.2,0,0.2-0.1l0.2-1.2h1.4v2.7H30.5z"/>
		<path class="st3" d="M38.8,84.6v-1l0.8-0.1c0.2,0,0.2-0.1,0.2-0.3v-6.8c0-0.2,0-0.3-0.2-0.3L38.8,76v-1h4.4v1l-1.1,0.1
			c-0.2,0-0.2,0.1-0.2,0.3v6.8h2.4c0.1,0,0.2,0,0.2-0.1l0.2-1.3h1.5v2.9H38.8z"/>
		<path class="st3" d="M47.1,84.6v-1l1-0.1c0.2,0,0.2-0.1,0.2-0.3v-6.8c0-0.2,0-0.3-0.2-0.3l-1-0.1V75h4.4V76l-1,0.1
			c-0.2,0-0.2,0.1-0.2,0.3v6.8c0,0.2,0,0.2,0.2,0.3l1,0.1v1H47.1z"/>
		<path class="st3" d="M60.8,81.1c-0.2,0-0.2,0.1-0.2,0.2v2.8c-1,0.5-2.3,0.6-3.4,0.6c-3.6,0-4.9-2.1-4.9-5c0-2.8,1.6-4.9,5-4.9
			c1,0,2.2,0.2,3,0.8v2.5L58.8,78l-0.2-1.2c0-0.2-0.1-0.2-0.2-0.3c-0.3-0.1-0.8-0.2-1.2-0.2c-1.7,0-2.7,1.3-2.7,3.4
			c0,2.2,0.9,3.5,2.8,3.5c0.4,0,0.8,0,1.1-0.1c0.1,0,0.2-0.1,0.2-0.2v-1.7h-1.5l0.2-1.2h4.1V81L60.8,81.1z"/>
		<path class="st3" d="M62,84.6v-1l0.8-0.1c0.2,0,0.2-0.1,0.2-0.3v-6.8c0-0.2,0-0.3-0.2-0.3L62,76v-1h7v2.7l-1.5-0.1l-0.2-1
			c0-0.1-0.1-0.2-0.2-0.2h-2.1V79h3.1v1.5h-3.1v2.7h2.4c0.1,0,0.2,0,0.2-0.1l0.2-1.2h1.4v2.7H62z"/>
		<path class="st3" d="M77.1,84.6l-4.2-6.9v5.5c0,0.2,0,0.2,0.2,0.3l0.9,0.1v1h-3.7v-1l0.8-0.1c0.2,0,0.2-0.1,0.2-0.3v-6.8
			c0-0.2,0-0.3-0.2-0.3L70.3,76v-1h3.3l4.2,6.9v-5.5c0-0.2,0-0.3-0.2-0.3L76.7,76V75h3.7V76l-0.9,0.1c-0.2,0-0.2,0.1-0.2,0.3v8.2
			H77.1z"/>
		<path class="st3" d="M89,84c-0.8,0.5-2.1,0.7-3.3,0.7c-3.3,0-4.6-1.9-4.6-5c0-2.8,1.6-4.9,4.9-4.9c1.1,0,2.3,0.3,3,0.8v2.6
			L87.6,78l-0.2-1.3c0-0.1-0.1-0.2-0.2-0.2c-0.3-0.1-0.7-0.2-1.2-0.2c-1.7,0-2.8,1.1-2.8,3.4c0,2.3,1,3.5,2.7,3.5
			c0.4,0,1-0.1,1.3-0.2c0.2,0,0.2-0.1,0.2-0.3l0.2-1.2H89V84z"/>
		<path class="st3" d="M90.1,84.6v-1l1-0.1c0.2,0,0.2-0.1,0.2-0.3v-6.8c0-0.2,0-0.3-0.2-0.3l-1-0.1V75h4.4V76l-1,0.1
			c-0.2,0-0.2,0.1-0.2,0.3v6.8c0,0.2,0,0.2,0.2,0.3l1,0.1v1H90.1z"/>
		<path class="st3" d="M100.8,84.6v-1l1.1-0.1l-0.5-1.4h-3.3l-0.5,1.4l1,0.1v1H95v-1l0.6-0.1c0.2,0,0.3-0.1,0.3-0.3l2.9-8.2h2.3
			l2.9,8.2c0.1,0.2,0.2,0.2,0.3,0.2l0.6,0.1v1H100.8z M99.9,77L99.9,77l-1.3,3.6h2.5L99.9,77z"/>
	</g>
</g>
</svg>
