<?xml version="1.0" encoding="utf-8"?>
<!-- Generator: Adobe Illustrator 22.0.1, SVG Export Plug-In . SVG Version: 6.00 Build 0)  -->
<svg version="1.1" id="Capa_1" xmlns="http://www.w3.org/2000/svg" xmlns:xlink="http://www.w3.org/1999/xlink" x="0px" y="0px"
	 viewBox="0 0 110 90" style="enable-background:new 0 0 110 90;" xml:space="preserve">
<style type="text/css">
	.st0{fill:url(#SVGID_1_);}
	.st1{fill:url(#SVGID_2_);}
	.st2{fill:#B53E45;}
	.st3{fill:#FFFFFF;}
	.st4{fill:#443E44;}
</style>
<g>
	<g>
		<g>
			<g>
				<linearGradient id="SVGID_1_" gradientUnits="userSpaceOnUse" x1="22.7091" y1="7.8768" x2="82.9496" y2="68.1173">
					<stop  offset="0" style="stop-color:#FFFFFF"/>
					<stop  offset="1" style="stop-color:#E2E4E8"/>
				</linearGradient>
				<path class="st0" d="M77.2,70.5H28.5c-4.5,0-8.1-3.6-8.1-8.1V13.6c0-4.5,3.6-8.1,8.1-8.1h48.8c4.5,0,8.1,3.6,8.1,8.1v48.8
					C85.3,66.9,81.7,70.5,77.2,70.5z"/>
				<linearGradient id="SVGID_2_" gradientUnits="userSpaceOnUse" x1="23.0563" y1="8.2241" x2="82.6023" y2="67.7701">
					<stop  offset="0" style="stop-color:#F1F2F4"/>
					<stop  offset="1" style="stop-color:#FFFFFF"/>
				</linearGradient>
				<path class="st1" d="M28.5,70c-4.2,0-7.6-3.4-7.6-7.6V13.6c0-4.2,3.4-7.6,7.6-7.6h48.8c4.2,0,7.6,3.4,7.6,7.6v48.8
					c0,4.2-3.4,7.6-7.6,7.6H28.5z"/>
			</g>
		</g>
		<g>
			<g>
				<g>
					<path class="st2" d="M76.8,34.6C76.8,23.8,68,15,57.3,15c-10.8,0-19.6,8.8-19.6,19.6c0,0.1,0,0.1,0,0.2c0,0,0,0,0,0l-3.4,7.9
						c-0.3,0.7-0.2,1.5,0.2,2.1c0.4,0.6,1.1,1,1.8,1h3.2v7.8c0,1.2,1,2.2,2.2,2.2c0.1,0,0.2,0,0.3,0l8.1-1.3v8.2
						c0,0.3,0.2,0.5,0.5,0.5H69c0.3,0,0.5-0.2,0.5-0.5V49.8C74.2,46.1,76.8,40.5,76.8,34.6z"/>
					<path class="st3" d="M70.5,29.3c0,4.8-6,8.6-13.4,8.6s-13.4-3.9-13.4-8.6S49.8,19,57.2,19S70.5,24.5,70.5,29.3z"/>
				</g>
			</g>
			<g>
				<path class="st4" d="M62.9,24.9c0.6,0,1.1-0.5,1.1-1.1c0-0.6-0.5-1.1-1.1-1.1s-1.1,0.5-1.1,1.1c0,0.3,0.1,0.6,0.3,0.8l-0.9,2.1
					h-2.6c0,0.1,0,0.2,0,0.3c0,0.1,0,0.2,0,0.3H61l-0.7,1.7c-0.1,0-0.3,0-0.4,0.1l-1.7-1.7c0-0.1,0.1-0.3,0.1-0.4
					c0-0.6-0.5-1.1-1.1-1.1c-0.6,0-1.1,0.5-1.1,1.1c0,0.2,0,0.3,0.1,0.5L54.7,29c-0.1,0-0.2,0-0.3,0c-0.6,0-1.1,0.5-1.1,1.1
					c0,0.1,0,0.3,0.1,0.4l-1.7,1.7c-0.1,0-0.3-0.1-0.4-0.1c-0.6,0-1.1,0.5-1.1,1.1c0,0.6,0.5,1.1,1.1,1.1c0.6,0,1.1-0.5,1.1-1.1
					c0-0.1,0-0.3-0.1-0.4l1.7-1.7c0.1,0,0.3,0.1,0.4,0.1c0.6,0,1.1-0.5,1.1-1.1c0-0.2,0-0.3-0.1-0.5l1.4-1.6c0.1,0,0.2,0,0.3,0
					c0.1,0,0.3,0,0.4-0.1l1.7,1.7c0,0.1-0.1,0.3-0.1,0.4c0,0.6,0.5,1.1,1.1,1.1c0.6,0,1.1-0.5,1.1-1.1c0-0.3-0.1-0.6-0.3-0.8
					l0.9-2.1h3.4v-0.5h-3.2L62.9,24.9z M63.3,23.8c0,0.2-0.2,0.4-0.4,0.4c-0.2,0-0.4-0.2-0.4-0.4c0-0.2,0.2-0.4,0.4-0.4
					C63.1,23.3,63.3,23.5,63.3,23.8z M60.7,30.1c0,0.2-0.2,0.4-0.4,0.4c-0.2,0-0.4-0.2-0.4-0.4c0-0.2,0.2-0.4,0.4-0.4
					C60.5,29.6,60.7,29.8,60.7,30.1z M57.1,27.3c-0.2,0-0.4-0.2-0.4-0.4c0-0.2,0.2-0.4,0.4-0.4c0.2,0,0.4,0.2,0.4,0.4
					C57.5,27.2,57.3,27.3,57.1,27.3z M53.9,30.1c0-0.2,0.2-0.4,0.4-0.4s0.4,0.2,0.4,0.4c0,0.2-0.2,0.4-0.4,0.4S53.9,30.3,53.9,30.1z
					 M50.8,33.2c0-0.2,0.2-0.4,0.4-0.4s0.4,0.2,0.4,0.4c0,0.2-0.2,0.4-0.4,0.4S50.8,33.4,50.8,33.2z"/>
				<path class="st4" d="M61.4,23.8c0-0.1,0-0.2,0-0.3H49v0.5h12.4C61.4,24,61.4,23.9,61.4,23.8z"/>
				<path class="st4" d="M64.4,23.5c0,0.1,0,0.2,0,0.3c0,0.1,0,0.2,0,0.3h1v-0.5H64.4z"/>
				<path class="st4" d="M55.6,26.9c0-0.1,0-0.2,0-0.3H49v0.5h6.6C55.6,27.1,55.6,27,55.6,26.9z"/>
				<path class="st4" d="M61.8,30.1c0,0.1,0,0.2,0,0.3h3.6v-0.5h-3.6C61.8,29.9,61.8,30,61.8,30.1z"/>
				<path class="st4" d="M55.8,29.8c0,0.1,0,0.2,0,0.3s0,0.2,0,0.3h3c0-0.1,0-0.2,0-0.3s0-0.2,0-0.3H55.8z"/>
				<path class="st4" d="M52.8,30.1c0-0.1,0-0.2,0-0.3H49v0.5h3.9C52.9,30.2,52.8,30.1,52.8,30.1z"/>
				<path class="st4" d="M49,32.9v0.5h0.8c0-0.1,0-0.2,0-0.3c0-0.1,0-0.2,0-0.3H49z"/>
				<path class="st4" d="M52.7,33.2c0,0.1,0,0.2,0,0.3h12.6v-0.5H52.7C52.7,33,52.7,33.1,52.7,33.2z"/>
				<circle class="st3" cx="62.9" cy="23.8" r="0.4"/>
				<path class="st3" d="M57.5,26.9c0-0.2-0.2-0.4-0.4-0.4c-0.2,0-0.4,0.2-0.4,0.4c0,0.2,0.2,0.4,0.4,0.4
					C57.3,27.3,57.5,27.2,57.5,26.9z"/>
				<path class="st3" d="M59.8,30.1c0,0.2,0.2,0.4,0.4,0.4c0.2,0,0.4-0.2,0.4-0.4c0-0.2-0.2-0.4-0.4-0.4
					C60,29.6,59.8,29.8,59.8,30.1z"/>
				<circle class="st3" cx="54.3" cy="30.1" r="0.4"/>
				<circle class="st3" cx="51.2" cy="33.2" r="0.4"/>
			</g>
		</g>
	</g>
	<g>
		<g>
			<path class="st2" d="M10.4,84.4v-1l0.8-0.1c0.2,0,0.2-0.1,0.2-0.3v-2.7H7.9V83c0,0.2,0,0.2,0.2,0.3L9,83.4v1H5v-1l0.8-0.1
				C6,83.3,6,83.2,6,83v-6.4c0-0.2,0-0.2-0.2-0.3L5,76.3v-1h4v1l-0.8,0.1c-0.2,0-0.2,0.1-0.2,0.2V79h3.4v-2.4c0-0.2,0-0.2-0.2-0.3
				l-0.8-0.1v-1h4v1l-0.8,0.1c-0.2,0-0.2,0.1-0.2,0.2V83c0,0.2,0,0.2,0.2,0.3l0.8,0.1v1H10.4z"/>
			<path class="st2" d="M21.6,76.6c0-0.2,0-0.2-0.2-0.3l-0.8-0.1v-1h3.7v1l-0.8,0.1c-0.2,0-0.2,0.1-0.2,0.2v4.5
				c0,2.4-1.4,3.4-3.6,3.4c-2.5,0-3.6-1.1-3.6-3.5v-4.5c0-0.2,0-0.2-0.2-0.3l-0.8-0.1v-1h4v1l-0.8,0.1c-0.2,0-0.2,0.1-0.2,0.2v4.1
				c0,1.4,0.3,2.2,1.7,2.2c1.3,0,1.8-0.6,1.8-2.2V76.6z"/>
			<path class="st2" d="M32.2,84.4v-1l1-0.1c0.2,0,0.2-0.1,0.2-0.3v-4.8h-0.1l-1.8,4.3h-2l-1.8-4.3h-0.1V83c0,0.2,0,0.2,0.2,0.3
				l1.1,0.1v1h-3.8v-1l0.8-0.1c0.2,0,0.2-0.1,0.2-0.3v-6.4c0-0.2,0-0.2-0.2-0.3l-0.8-0.1v-1h3.4l2.2,5.7h0.1l2.3-5.7h3.3v1l-0.8,0.1
				c-0.2,0-0.2,0-0.2,0.2V83c0,0.2,0,0.2,0.2,0.2l0.8,0.1v1H32.2z"/>
			<path class="st2" d="M37.1,79.8c0-2.7,1.5-4.7,4.5-4.7c3,0,4.3,2,4.3,4.6c0,3-1.4,4.8-4.4,4.8C38.4,84.5,37.1,82.6,37.1,79.8z
				 M43.9,79.8c0-2.2-0.9-3.1-2.3-3.1c-1.4,0-2.5,1-2.5,3.1c0,2.3,0.9,3.2,2.4,3.2C42.9,83,43.9,82.1,43.9,79.8z"/>
			<path class="st2" d="M52.2,84.4L51,81.2c-0.2-0.4-0.3-0.6-0.7-0.6h-0.6V83c0,0.2,0,0.2,0.2,0.3l0.9,0.1v1h-4v-1l0.8-0.1
				c0.2,0,0.2-0.1,0.2-0.3v-6.4c0-0.2,0-0.2-0.2-0.3l-0.8-0.1v-1H51c2.3,0,2.9,1.2,2.9,2.5c0,1.3-0.7,2-1.7,2.4
				c0.4,0.2,0.5,0.5,0.7,1l0.7,1.8c0.1,0.2,0.2,0.2,0.4,0.2l0.8,0.1v1H52.2z M50.3,79.3c0.9,0,1.7-0.2,1.7-1.4c0-1-0.5-1.3-1.7-1.3
				h-0.6v2.7H50.3z"/>
			<path class="st2" d="M62.7,77.9l-0.2-1c0-0.2-0.1-0.2-0.2-0.2c-0.2-0.1-0.5-0.1-0.9-0.1c-0.9,0-1.4,0.4-1.4,1.1
				c0,0.8,0.9,1.1,1.8,1.3c1.2,0.4,2.5,0.8,2.5,2.7c0,2.1-1.6,2.9-3.5,2.9c-1.1,0-2.4-0.3-2.9-0.5v-2.4h1.4l0.3,1.2
				c0,0.2,0.1,0.2,0.2,0.2c0.1,0,0.6,0.1,1.1,0.1c1,0,1.6-0.4,1.6-1.2c0-0.8-0.7-1.1-1.6-1.3c-1.2-0.4-2.8-0.7-2.8-2.7
				c0-1.9,1.5-2.8,3.4-2.8c1.1,0,2,0.3,2.6,0.5V78L62.7,77.9z"/>
			<path class="st2" d="M65.3,79.8c0-2.7,1.5-4.7,4.5-4.7c3,0,4.3,2,4.3,4.6c0,3-1.4,4.8-4.4,4.8C66.6,84.5,65.3,82.6,65.3,79.8z
				 M72.1,79.8c0-2.2-0.9-3.1-2.3-3.1c-1.4,0-2.5,1-2.5,3.1c0,2.3,0.9,3.2,2.4,3.2C71.1,83,72.1,82.1,72.1,79.8z"/>
			<path class="st2" d="M82.4,83.8c-0.7,0.5-2,0.7-3.1,0.7c-3.1,0-4.4-1.8-4.4-4.7c0-2.7,1.5-4.7,4.7-4.7c1,0,2.2,0.3,2.9,0.7v2.5
				L81,78.2l-0.2-1.2c0-0.1-0.1-0.2-0.2-0.2c-0.3-0.1-0.7-0.2-1.1-0.2c-1.6,0-2.6,1.1-2.6,3.2c0,2.2,1,3.3,2.5,3.3
				c0.4,0,0.9-0.1,1.3-0.2c0.2,0,0.2-0.1,0.2-0.3l0.2-1.2h1.3V83.8z"/>
			<path class="st2" d="M83.4,84.4v-1l0.9-0.1c0.2,0,0.2-0.1,0.2-0.3v-6.4c0-0.2,0-0.2-0.2-0.3l-0.9-0.1v-1h4.2v1l-1,0.1
				c-0.2,0-0.2,0.1-0.2,0.2V83c0,0.2,0,0.2,0.2,0.3l1,0.1v1H83.4z"/>
			<path class="st2" d="M93.6,84.4v-1l1-0.1L94.1,82H91l-0.4,1.3l1,0.1v1h-3.5v-1l0.6-0.1c0.2,0,0.3-0.1,0.3-0.2l2.8-7.7h2.2
				l2.7,7.8c0,0.2,0.1,0.2,0.3,0.2l0.6,0.1v1H93.6z M92.6,77.2L92.6,77.2l-1.2,3.4h2.3L92.6,77.2z"/>
			<path class="st2" d="M98,84.4v-1l0.8-0.1c0.2,0,0.2-0.1,0.2-0.3v-6.4c0-0.2,0-0.2-0.2-0.3L98,76.3v-1h4.2v1l-1,0.1
				c-0.2,0-0.2,0.1-0.2,0.2V83h2.2c0.1,0,0.2,0,0.2-0.1l0.2-1.3h1.4v2.7H98z"/>
		</g>
	</g>
</g>
</svg>
