<?xml version="1.0" encoding="utf-8"?>
<!-- Generator: Adobe Illustrator 22.0.1, SVG Export Plug-In . SVG Version: 6.00 Build 0)  -->
<svg version="1.1" id="Capa_1" xmlns="http://www.w3.org/2000/svg" xmlns:xlink="http://www.w3.org/1999/xlink" x="0px" y="0px"
	 viewBox="0 0 110 90" style="enable-background:new 0 0 110 90;" xml:space="preserve">
<style type="text/css">
	.st0{fill:url(#SVGID_1_);}
	.st1{fill:url(#SVGID_2_);}
	.st2{fill:#B53E45;}
	.st3{fill:#605C5E;}
	.st4{fill:#1E1A19;}
	.st5{font-family:'Adelle-Bold';}
	.st6{font-size:10.3946px;}
</style>
<g>
	<g>
		<g>
			<linearGradient id="SVGID_1_" gradientUnits="userSpaceOnUse" x1="24.8798" y1="7.567" x2="85.1202" y2="67.8075">
				<stop  offset="0" style="stop-color:#FFFFFF"/>
				<stop  offset="1" style="stop-color:#E2E4E8"/>
			</linearGradient>
			<path class="st0" d="M79.4,70.2H30.6c-4.5,0-8.1-3.6-8.1-8.1V13.3c0-4.5,3.6-8.1,8.1-8.1h48.8c4.5,0,8.1,3.6,8.1,8.1v48.8
				C87.5,66.5,83.9,70.2,79.4,70.2z"/>
			<linearGradient id="SVGID_2_" gradientUnits="userSpaceOnUse" x1="25.227" y1="7.9143" x2="84.773" y2="67.4603">
				<stop  offset="0" style="stop-color:#F1F2F4"/>
				<stop  offset="1" style="stop-color:#FFFFFF"/>
			</linearGradient>
			<path class="st1" d="M30.6,69.7c-4.2,0-7.6-3.4-7.6-7.6V13.3c0-4.2,3.4-7.6,7.6-7.6h48.8c4.2,0,7.6,3.4,7.6,7.6v48.8
				c0,4.2-3.4,7.6-7.6,7.6H30.6z"/>
		</g>
	</g>
	<g>
		<circle class="st2" cx="55.8" cy="50.5" r="3.4"/>
		<path class="st2" d="M55.8,54.8L55.8,54.8c-3.7,0-6.8,0.9-6.8,4.6v1.2c0,0.7,0.5,1.2,1.2,1.2h11.2c0.7,0,1.2-0.5,1.2-1.2v-1.2
			C62.6,55.7,59.6,54.8,55.8,54.8z"/>
		<ellipse transform="matrix(0.9845 -0.1753 0.1753 0.9845 -2.7327 10.1041)" class="st2" cx="55.8" cy="20.5" rx="3.4" ry="3.4"/>
		<path class="st2" d="M50.2,31.8h11.2c0.7,0,1.2-0.5,1.2-1.2v-1.2c0-3.7-3.1-4.6-6.8-4.6h0c-3.7,0-6.8,0.9-6.8,4.6v1.2
			C49,31.3,49.6,31.8,50.2,31.8z"/>
		<circle class="st3" cx="72.1" cy="34.5" r="3.4"/>
		<path class="st3" d="M72.1,38.8L72.1,38.8c-3.7,0-6.8,0.9-6.8,4.6v1.2c0,0.7,0.5,1.2,1.2,1.2h11.2c0.7,0,1.2-0.5,1.2-1.2v-1.2
			C78.9,39.7,75.8,38.8,72.1,38.8z"/>
		<circle class="st3" cx="39.9" cy="34.5" r="3.4"/>
		<path class="st3" d="M46.7,44.6v-1.2c0-3.7-3.1-4.6-6.8-4.6l0,0c-3.7,0-6.8,0.9-6.8,4.6v1.2c0,0.7,0.5,1.2,1.2,1.2h11.2
			C46.2,45.8,46.7,45.3,46.7,44.6z"/>
		<path class="st4" d="M66.5,47.3l-6.3,6.3c0.5,0.2,1,0.4,1.4,0.6c0,0,0.1,0,0.1,0.1l7-7L66.5,47.3C66.5,47.3,66.5,47.3,66.5,47.3z"
			/>
		<path class="st4" d="M50.5,54.2c0.4-0.2,0.9-0.4,1.4-0.6l-6.3-6.3c0,0,0,0,0,0h-2.1L50.5,54.2C50.4,54.3,50.4,54.2,50.5,54.2z"/>
		<path class="st4" d="M66.2,38.6l-5.5-5.5h-2.2l6.5,6.5C65.4,39.2,65.8,38.9,66.2,38.6z"/>
		<path class="st4" d="M46.9,39.6l6.5-6.5h-2.2l-5.5,5.5C46.2,38.9,46.6,39.2,46.9,39.6z"/>
	</g>
</g>
<g>
	<text transform="matrix(1 0 0 1 16.8701 85.8779)" class="st2 st5 st6">VINCULACIÓN</text>
</g>
</svg>
