<?xml version="1.0" encoding="utf-8"?>
<!-- Generator: Adobe Illustrator 22.0.1, SVG Export Plug-In . SVG Version: 6.00 Build 0)  -->
<svg version="1.1" id="Capa_1" xmlns="http://www.w3.org/2000/svg" xmlns:xlink="http://www.w3.org/1999/xlink" x="0px" y="0px"
	 viewBox="0 0 110 90" style="enable-background:new 0 0 110 90;" xml:space="preserve">
<style type="text/css">
	.st0{fill:url(#SVGID_1_);}
	.st1{fill:url(#SVGID_2_);}
	.st2{fill:#B53E45;}
	.st3{fill:#605C5E;}
	.st4{fill:#1E1A19;}
</style>
<g>
	<g>
		<g>
			<g>
				<linearGradient id="SVGID_1_" gradientUnits="userSpaceOnUse" x1="24.2992" y1="7.9321" x2="84.5396" y2="68.1725">
					<stop  offset="0" style="stop-color:#FFFFFF"/>
					<stop  offset="1" style="stop-color:#E2E4E8"/>
				</linearGradient>
				<path class="st0" d="M78.8,70.6H30c-4.5,0-8.1-3.6-8.1-8.1V13.7c0-4.5,3.6-8.1,8.1-8.1h48.8c4.5,0,8.1,3.6,8.1,8.1v48.8
					C86.9,66.9,83.3,70.6,78.8,70.6z"/>
				<linearGradient id="SVGID_2_" gradientUnits="userSpaceOnUse" x1="24.6464" y1="8.2793" x2="84.1924" y2="67.8253">
					<stop  offset="0" style="stop-color:#F1F2F4"/>
					<stop  offset="1" style="stop-color:#FFFFFF"/>
				</linearGradient>
				<path class="st1" d="M30,70.1c-4.2,0-7.6-3.4-7.6-7.6V13.7C22.4,9.5,25.8,6,30,6h48.8c4.2,0,7.6,3.4,7.6,7.6v48.8
					c0,4.2-3.4,7.6-7.6,7.6H30z"/>
			</g>
		</g>
		<g>
			<circle class="st2" cx="55.3" cy="50.9" r="3.4"/>
			<path class="st2" d="M55.3,55.2L55.3,55.2c-3.7,0-6.8,0.9-6.8,4.6v1.2c0,0.7,0.5,1.2,1.2,1.2h11.2c0.7,0,1.2-0.5,1.2-1.2v-1.2
				C62.1,56.1,59,55.2,55.3,55.2z"/>
			<ellipse transform="matrix(0.9845 -0.1753 0.1753 0.9845 -2.8057 10.0079)" class="st2" cx="55.3" cy="20.9" rx="3.4" ry="3.4"/>
			<path class="st2" d="M49.7,32.2h11.2c0.7,0,1.2-0.5,1.2-1.2v-1.2c0-3.7-3.1-4.6-6.8-4.6h0c-3.7,0-6.8,0.9-6.8,4.6V31
				C48.5,31.6,49,32.2,49.7,32.2z"/>
			<circle class="st3" cx="71.5" cy="34.9" r="3.4"/>
			<path class="st3" d="M71.5,39.2L71.5,39.2c-3.7,0-6.8,0.9-6.8,4.6V45c0,0.7,0.5,1.2,1.2,1.2h11.2c0.7,0,1.2-0.5,1.2-1.2v-1.2
				C78.3,40.1,75.3,39.2,71.5,39.2z"/>
			<circle class="st3" cx="39.3" cy="34.9" r="3.4"/>
			<path class="st3" d="M46.1,45v-1.2c0-3.7-3.1-4.6-6.8-4.6l0,0c-3.7,0-6.8,0.9-6.8,4.6V45c0,0.7,0.5,1.2,1.2,1.2h11.2
				C45.6,46.2,46.1,45.6,46.1,45z"/>
			<path class="st4" d="M65.9,47.7L59.6,54c0.5,0.2,1,0.4,1.4,0.6c0,0,0.1,0,0.1,0.1l7-7L65.9,47.7C65.9,47.7,65.9,47.7,65.9,47.7z"
				/>
			<path class="st4" d="M49.9,54.6c0.4-0.2,0.9-0.4,1.4-0.6L45,47.7c0,0,0,0,0,0h-2.1L49.9,54.6C49.8,54.6,49.8,54.6,49.9,54.6z"/>
			<path class="st4" d="M65.6,39l-5.5-5.5H58l6.5,6.5C64.8,39.6,65.2,39.2,65.6,39z"/>
			<path class="st4" d="M46.4,40l6.5-6.5h-2.2L45.2,39C45.6,39.2,46,39.6,46.4,40z"/>
		</g>
	</g>
	<g>
		<g>
			<path class="st2" d="M8.6,84.3l-2.7-8.3c-0.1-0.2-0.2-0.2-0.3-0.2L5,75.6l0.1-1.1h4.1v1.1l-1.1,0.1l2,6.8h0.1l2-6.8l-1.1-0.1
				l0.1-1.1h3.5v1.1l-0.6,0.1c-0.2,0-0.3,0.1-0.3,0.3l-2.5,8.3H8.6z"/>
			<path class="st2" d="M15.3,84.3v-1.1l1-0.1c0.2,0,0.2-0.1,0.2-0.3V76c0-0.2,0-0.3-0.2-0.3l-1-0.1v-1.1h4.5v1.1l-1,0.1
				c-0.2,0-0.2,0.1-0.2,0.3v6.9c0,0.2,0,0.2,0.2,0.3l1,0.1v1.1H15.3z"/>
			<path class="st2" d="M27.8,84.3l-4.3-7v5.6c0,0.2,0,0.2,0.2,0.3l0.9,0.1v1.1h-3.8v-1.1l0.9-0.1c0.2,0,0.2-0.1,0.2-0.3v-6.9
				c0-0.2,0-0.3-0.2-0.3l-0.9-0.1v-1.1h3.3l4.2,7.1V76c0-0.2,0-0.3-0.2-0.3l-0.9-0.1v-1.1h3.8v1.1l-0.9,0.1C30,75.7,30,75.8,30,76
				v8.3H27.8z"/>
			<path class="st2" d="M39.9,83.7c-0.8,0.5-2.1,0.7-3.4,0.7c-3.4,0-4.7-2-4.7-5.1c0-2.9,1.7-5,5-5c1.1,0,2.3,0.3,3.1,0.8v2.6
				l-1.5-0.1l-0.2-1.3c0-0.1-0.1-0.2-0.2-0.2c-0.3-0.1-0.8-0.2-1.2-0.2c-1.7,0-2.8,1.2-2.8,3.5c0,2.4,1,3.6,2.7,3.6
				c0.4,0,1-0.1,1.4-0.2c0.2,0,0.2-0.1,0.2-0.3l0.2-1.3h1.4V83.7z"/>
			<path class="st2" d="M47.8,75.9c0-0.2,0-0.3-0.2-0.3l-0.9-0.1v-1.1h4v1.1l-0.9,0.1c-0.2,0-0.2,0.1-0.2,0.3v4.8
				c0,2.6-1.5,3.7-3.8,3.7c-2.7,0-3.8-1.2-3.8-3.7v-4.8c0-0.2,0-0.3-0.2-0.3l-0.8-0.1v-1.1h4.3v1.1l-0.9,0.1c-0.2,0-0.2,0.1-0.2,0.3
				v4.4c0,1.6,0.4,2.4,1.8,2.4c1.4,0,2-0.6,2-2.3V75.9z"/>
			<path class="st2" d="M51.6,84.3v-1.1l0.9-0.1c0.2,0,0.2-0.1,0.2-0.3v-6.9c0-0.2,0-0.3-0.2-0.3l-0.9-0.1v-1.1h4.5v1.1L55,75.7
				c-0.2,0-0.2,0.1-0.2,0.3v6.9h2.4c0.1,0,0.2,0,0.2-0.1l0.2-1.4h1.5v2.9H51.6z"/>
			<path class="st2" d="M65.4,84.3v-1.1l1.1-0.1l-0.5-1.4h-3.3l-0.5,1.4l1.1,0.1v1.1h-3.8v-1.1l0.6-0.1c0.2,0,0.3-0.1,0.3-0.3l3-8.3
				h2.4l2.9,8.3c0.1,0.2,0.2,0.2,0.3,0.2l0.6,0.1v1.1H65.4z M64.5,76.6L64.5,76.6l-1.3,3.7h2.5L64.5,76.6z"/>
			<path class="st2" d="M77.9,83.7c-0.8,0.5-2.1,0.7-3.4,0.7c-3.4,0-4.7-2-4.7-5.1c0-2.9,1.7-5,5-5c1.1,0,2.3,0.3,3.1,0.8v2.6
				l-1.5-0.1l-0.2-1.3c0-0.1-0.1-0.2-0.2-0.2c-0.3-0.1-0.8-0.2-1.2-0.2c-1.7,0-2.8,1.2-2.8,3.5c0,2.4,1,3.6,2.7,3.6
				c0.4,0,1-0.1,1.4-0.2c0.2,0,0.2-0.1,0.2-0.3l0.2-1.3h1.4V83.7z"/>
			<path class="st2" d="M79,84.3v-1.1l1-0.1c0.2,0,0.2-0.1,0.2-0.3V76c0-0.2,0-0.3-0.2-0.3l-1-0.1v-1.1h4.5v1.1l-1,0.1
				c-0.2,0-0.2,0.1-0.2,0.3v6.9c0,0.2,0,0.2,0.2,0.3l1,0.1v1.1H79z"/>
			<path class="st2" d="M84.4,79.4c0-2.9,1.6-5.1,4.8-5.1c3.2,0,4.6,2.2,4.6,4.9c0,3.2-1.6,5.2-4.8,5.2
				C85.8,84.4,84.4,82.4,84.4,79.4z M91.6,79.4c0-2.3-0.9-3.3-2.5-3.3c-1.6,0-2.6,1-2.6,3.3c0,2.4,1,3.4,2.6,3.4
				C90.6,82.8,91.6,81.9,91.6,79.4z M88.2,73.9L87.7,73l2.8-1.6l0.7,1.3L88.2,73.9z"/>
			<path class="st2" d="M101.7,84.3l-4.3-7v5.6c0,0.2,0,0.2,0.2,0.3l0.9,0.1v1.1h-3.8v-1.1l0.9-0.1c0.2,0,0.2-0.1,0.2-0.3v-6.9
				c0-0.2,0-0.3-0.2-0.3l-0.9-0.1v-1.1h3.3l4.2,7.1V76c0-0.2,0-0.3-0.2-0.3l-0.9-0.1v-1.1h3.8v1.1l-0.9,0.1c-0.2,0-0.2,0.1-0.2,0.3
				v8.3H101.7z"/>
		</g>
	</g>
</g>
</svg>
