<?xml version="1.0" encoding="utf-8"?>
<!-- Generator: Adobe Illustrator 22.0.1, SVG Export Plug-In . SVG Version: 6.00 Build 0)  -->
<svg version="1.1" id="Capa_1" xmlns="http://www.w3.org/2000/svg" xmlns:xlink="http://www.w3.org/1999/xlink" x="0px" y="0px"
	 viewBox="0 0 110 90" style="enable-background:new 0 0 110 90;" xml:space="preserve">
<style type="text/css">
	.st0{fill:url(#SVGID_1_);}
	.st1{fill:url(#SVGID_2_);}
	.st2{fill:#B53E45;}
	.st3{fill:#605C5E;}
	.st4{font-family:'Adelle-Bold';}
	.st5{font-size:10.3946px;}
</style>
<g>
	<g>
		<g>
			<linearGradient id="SVGID_1_" gradientUnits="userSpaceOnUse" x1="24.8798" y1="7.6794" x2="85.1202" y2="67.9199">
				<stop  offset="0" style="stop-color:#FFFFFF"/>
				<stop  offset="1" style="stop-color:#E2E4E8"/>
			</linearGradient>
			<path class="st0" d="M79.4,70.3H30.6c-4.5,0-8.1-3.6-8.1-8.1V13.4c0-4.5,3.6-8.1,8.1-8.1h48.8c4.5,0,8.1,3.6,8.1,8.1v48.8
				C87.5,66.7,83.9,70.3,79.4,70.3z"/>
			<linearGradient id="SVGID_2_" gradientUnits="userSpaceOnUse" x1="25.227" y1="8.0267" x2="84.773" y2="67.5727">
				<stop  offset="0" style="stop-color:#F1F2F4"/>
				<stop  offset="1" style="stop-color:#FFFFFF"/>
			</linearGradient>
			<path class="st1" d="M30.6,69.8c-4.2,0-7.6-3.4-7.6-7.6V13.4c0-4.2,3.4-7.6,7.6-7.6h48.8c4.2,0,7.6,3.4,7.6,7.6v48.8
				c0,4.2-3.4,7.6-7.6,7.6H30.6z"/>
		</g>
	</g>
	<g>
		<g>
			<g>
				<path class="st2" d="M3527.4,1903.7c-0.3,0-0.7,0.3-0.7,0.7v13.6c0,0.3,0.3,0.7,0.7,0.7h6.1c0.3,0,0.7-0.3,0.7-0.7v-13.6
					c0-0.3-0.3-0.7-0.7-0.7H3527.4z"/>
				<path class="st2" d="M3537.4,1897.9c-0.3,0-0.7,0.3-0.7,0.7v19.4c0,0.3,0.3,0.7,0.7,0.7h6.1c0.3,0,0.7-0.3,0.7-0.7v-19.4
					c0-0.3-0.3-0.7-0.7-0.7H3537.4z"/>
				<path class="st2" d="M3547.3,1900c-0.3,0-0.7,0.3-0.7,0.7v17.3c0,0.3,0.3,0.7,0.7,0.7h6.1c0.3,0,0.7-0.3,0.7-0.7v-17.3
					c0-0.3-0.3-0.7-0.7-0.7H3547.3z"/>
				<path class="st3" d="M3557.3,1894.8c-0.3,0-0.7,0.3-0.7,0.7v22.5c0,0.3,0.3,0.7,0.7,0.7h6.1c0.3,0,0.7-0.3,0.7-0.7v-22.5
					c0-0.3-0.3-0.7-0.7-0.7H3557.3z"/>
				<path class="st3" d="M3529,1893.4c1.4-0.8,3.2-0.3,4,1.1c0.8,1.4,0.3,3.2-1.1,4c0,0,0,0,0,0c-1.4,0.8-3.2,0.3-4-1.1
					C3527.2,1896,3527.6,1894.2,3529,1893.4C3529,1893.4,3529,1893.4,3529,1893.4z"/>
				<path class="st3" d="M3539,1887.5c1.4-0.8,3.2-0.3,4,1.1c0.8,1.4,0.3,3.2-1.1,4c0,0,0,0,0,0c-1.4,0.8-3.2,0.3-4-1.1
					S3537.6,1888.3,3539,1887.5C3539,1887.5,3539,1887.5,3539,1887.5z"/>
				<path class="st3" d="M3548.9,1889.8c1.4-0.8,3.2-0.3,4,1.1c0.8,1.4,0.3,3.2-1.1,4c0,0,0,0,0,0c-1.4,0.8-3.2,0.3-4-1.1
					S3547.5,1890.6,3548.9,1889.8C3548.9,1889.8,3548.9,1889.8,3548.9,1889.8z"/>
				<path class="st3" d="M3558.9,1884.6c1.4-0.8,3.2-0.3,4,1.1c0.8,1.4,0.3,3.2-1.1,4c0,0,0,0,0,0c-1.4,0.8-3.2,0.3-4-1.1
					S3557.5,1885.4,3558.9,1884.6C3558.9,1884.6,3558.9,1884.6,3558.9,1884.6z"/>
				<path class="st3" d="M3540.5,1889.3c-0.1,0-0.2,0-0.4,0.1l-9.6,5.8c-0.3,0.2-0.4,0.6-0.2,0.9c0.2,0.3,0.6,0.4,0.9,0.2l0,0
					l9.6-5.8c0.3-0.2,0.4-0.6,0.2-0.9C3540.9,1889.5,3540.7,1889.3,3540.5,1889.3z"/>
				<path class="st3" d="M3540.6,1889.4c-0.4,0-0.6,0.3-0.6,0.7c0,0.3,0.2,0.5,0.5,0.6l9.6,2.3c0.4,0.1,0.7-0.1,0.8-0.5
					s-0.1-0.7-0.5-0.8c0,0,0,0,0,0l-9.6-2.3C3540.7,1889.4,3540.7,1889.3,3540.6,1889.4z"/>
				<path class="st3" d="M3560.3,1886.5c-0.1,0-0.2,0-0.3,0.1l-9.7,5.2c-0.3,0.2-0.4,0.6-0.3,0.9c0.2,0.3,0.6,0.4,0.9,0.3l9.7-5.2
					c0.3-0.2,0.5-0.6,0.3-0.9C3560.8,1886.6,3560.5,1886.5,3560.3,1886.5z"/>
			</g>
		</g>
	</g>
</g>
<g>
	<text transform="matrix(1 0 0 1 25.0107 85.1182)" class="st2 st4 st5">ANALÍTICA</text>
</g>
</svg>
