<?xml version="1.0" encoding="utf-8"?>
<!-- Generator: Adobe Illustrator 22.0.1, SVG Export Plug-In . SVG Version: 6.00 Build 0)  -->
<svg version="1.1" id="Capa_1" xmlns="http://www.w3.org/2000/svg" xmlns:xlink="http://www.w3.org/1999/xlink" x="0px" y="0px"
	 viewBox="0 0 110 90" style="enable-background:new 0 0 110 90;" xml:space="preserve">
<style type="text/css">
	.st0{fill:url(#SVGID_1_);}
	.st1{fill:url(#SVGID_2_);}
	.st2{fill:#474244;}
	.st3{fill:#B53E45;}
</style>
<g>
	<g>
		<g>
			<linearGradient id="SVGID_1_" gradientUnits="userSpaceOnUse" x1="24.8798" y1="6.6656" x2="85.1202" y2="66.9061">
				<stop  offset="0" style="stop-color:#FFFFFF"/>
				<stop  offset="1" style="stop-color:#E2E4E8"/>
			</linearGradient>
			<path class="st0" d="M79.4,69.3H30.6c-4.5,0-8.1-3.6-8.1-8.1V12.4c0-4.5,3.6-8.1,8.1-8.1h48.8c4.5,0,8.1,3.6,8.1,8.1v48.8
				C87.5,65.6,83.9,69.3,79.4,69.3z"/>
			<linearGradient id="SVGID_2_" gradientUnits="userSpaceOnUse" x1="25.227" y1="7.0128" x2="84.773" y2="66.5589">
				<stop  offset="0" style="stop-color:#F1F2F4"/>
				<stop  offset="1" style="stop-color:#FFFFFF"/>
			</linearGradient>
			<path class="st1" d="M30.6,68.8c-4.2,0-7.6-3.4-7.6-7.6V12.4c0-4.2,3.4-7.6,7.6-7.6h48.8c4.2,0,7.6,3.4,7.6,7.6v48.8
				c0,4.2-3.4,7.6-7.6,7.6H30.6z"/>
		</g>
	</g>
	<g>
		<path class="st2" d="M35.7,27.2v26.1c0,2.9,2.3,5.2,5.2,5.2h28.1c2.9,0,5.2-2.3,5.2-5.2V33.6l-5.2,6.1v13.5H40.9V34.6
			c0-0.3,0-0.7,0-1v-6.5h23.6l4.3-5.2H40.9C38.1,22,35.7,24.3,35.7,27.2z"/>
		<path class="st3" d="M48.7,32c-1.1-1-2.9-1-4,0.1c-1.2,1.1-1.2,3,0,4.1L55.2,47l2.7,2.8l2.4-3l8.8-11.2l5.2-6.6L82.8,18
			c0.7-0.9,0.6-2.3-0.3-3.1c-0.9-0.9-2.4-0.8-3.3,0.2l-7.2,8l-3.7,4.2L57.3,39.5L48.7,32z"/>
	</g>
</g>
<g>
	<path class="st3" d="M5.5,84.6v-1l1-0.1c0.2,0,0.2-0.1,0.2-0.3v-6.7c0-0.2,0-0.2-0.2-0.3l-1-0.1V75h4.4v1.1l-1,0.1
		c-0.2,0-0.2,0.1-0.2,0.2v6.7c0,0.2,0,0.2,0.2,0.3l1,0.1v1H5.5z"/>
	<path class="st3" d="M17.6,84.6l-4.2-6.9v5.5c0,0.2,0,0.2,0.2,0.3l0.9,0.1v1h-3.7v-1l0.8-0.1c0.2,0,0.2-0.1,0.2-0.3v-6.8
		c0-0.2,0-0.2-0.2-0.3l-0.8-0.1v-1h3.3l4.1,6.9v-5.5c0-0.2,0-0.2-0.2-0.3l-0.8-0.1V75h3.7v1.1L20,76.2c-0.2,0-0.2,0.1-0.2,0.2v8.1
		H17.6z"/>
	<path class="st3" d="M23.2,84.6v-1l1.4-0.1c0.2,0,0.2-0.1,0.2-0.3v-6.7h-1.4c-0.1,0-0.2,0-0.2,0.1L23,77.8h-1.4V75H30v2.7h-1.4
		l-0.2-1.1c0-0.1-0.1-0.1-0.2-0.1h-1.4v6.7c0,0.2,0,0.2,0.2,0.2l1.4,0.1v1H23.2z"/>
	<path class="st3" d="M30.9,84.6v-1l0.8-0.1c0.2,0,0.2-0.1,0.2-0.3v-6.8c0-0.2,0-0.3-0.2-0.3l-0.8-0.1v-1h7v2.7l-1.4-0.1l-0.2-1
		c0-0.1-0.1-0.2-0.2-0.2h-2.1V79H37v1.5h-3.1v2.6h2.4c0.1,0,0.2,0,0.2-0.1l0.2-1.2h1.4v2.7H30.9z"/>
	<path class="st3" d="M39.1,84.6v-1l0.8-0.1c0.2,0,0.2-0.1,0.2-0.3v-6.7c0-0.2,0-0.3-0.2-0.3l-0.8-0.1v-1h4.4v1l-1.1,0.1
		c-0.2,0-0.2,0.1-0.2,0.3v6.7h2.3c0.1,0,0.2,0,0.2-0.1l0.2-1.3h1.4v2.9H39.1z"/>
	<path class="st3" d="M47.3,84.6v-1l1-0.1c0.2,0,0.2-0.1,0.2-0.3v-6.7c0-0.2,0-0.2-0.2-0.3l-1-0.1V75h4.4v1.1l-1,0.1
		c-0.2,0-0.2,0.1-0.2,0.2v6.7c0,0.2,0,0.2,0.2,0.3l1,0.1v1H47.3z"/>
	<path class="st3" d="M61,81.1c-0.2,0-0.2,0.1-0.2,0.2v2.8c-1,0.5-2.3,0.6-3.4,0.6c-3.6,0-4.8-2.1-4.8-5c0-2.8,1.6-4.9,4.9-4.9
		c0.9,0,2.2,0.2,3,0.8v2.5L59,78l-0.2-1.2c0-0.2-0.1-0.2-0.2-0.3c-0.3-0.1-0.8-0.2-1.2-0.2c-1.7,0-2.7,1.3-2.7,3.4
		c0,2.2,0.9,3.5,2.8,3.5c0.4,0,0.8,0,1.1-0.1c0.1,0,0.2-0.1,0.2-0.2v-1.7h-1.5l0.2-1.2h4V81L61,81.1z"/>
	<path class="st3" d="M62.2,84.6v-1l0.8-0.1c0.2,0,0.2-0.1,0.2-0.3v-6.8c0-0.2,0-0.3-0.2-0.3l-0.8-0.1v-1h7v2.7l-1.4-0.1l-0.2-1
		c0-0.1-0.1-0.2-0.2-0.2h-2.1V79h3.1v1.5h-3.1v2.6h2.4c0.1,0,0.2,0,0.2-0.1l0.2-1.2h1.4v2.7H62.2z"/>
	<path class="st3" d="M77.2,84.6L73,77.7v5.5c0,0.2,0,0.2,0.2,0.3l0.9,0.1v1h-3.7v-1l0.8-0.1c0.2,0,0.2-0.1,0.2-0.3v-6.8
		c0-0.2,0-0.2-0.2-0.3l-0.8-0.1v-1h3.3l4.1,6.9v-5.5c0-0.2,0-0.2-0.2-0.3l-0.8-0.1V75h3.7v1.1l-0.9,0.1c-0.2,0-0.2,0.1-0.2,0.2v8.1
		H77.2z"/>
	<path class="st3" d="M89.1,84c-0.8,0.5-2.1,0.7-3.3,0.7c-3.3,0-4.6-1.9-4.6-5c0-2.8,1.6-4.9,4.9-4.9c1.1,0,2.3,0.3,3,0.8v2.6
		l-1.4-0.1l-0.2-1.3c0-0.1-0.1-0.2-0.2-0.2c-0.3-0.1-0.7-0.2-1.2-0.2c-1.7,0-2.7,1.1-2.7,3.4c0,2.3,1,3.5,2.6,3.5
		c0.4,0,1-0.1,1.3-0.2c0.2,0,0.2-0.1,0.2-0.3l0.2-1.2h1.4V84z"/>
	<path class="st3" d="M90.2,84.6v-1l1-0.1c0.2,0,0.2-0.1,0.2-0.3v-6.7c0-0.2,0-0.2-0.2-0.3l-1-0.1V75h4.4v1.1l-1,0.1
		c-0.2,0-0.2,0.1-0.2,0.2v6.7c0,0.2,0,0.2,0.2,0.3l1,0.1v1H90.2z"/>
	<path class="st3" d="M100.8,84.6v-1l1.1-0.1l-0.5-1.4h-3.3l-0.5,1.4l1,0.1v1H95v-1l0.6-0.1c0.2,0,0.3-0.1,0.3-0.2l2.9-8.1h2.3
		l2.9,8.1c0.1,0.2,0.2,0.2,0.3,0.2l0.6,0.1v1H100.8z M99.8,77L99.8,77l-1.3,3.6h2.5L99.8,77z"/>
</g>
</svg>
