<?xml version="1.0" encoding="utf-8"?>
<!-- Generator: Adobe Illustrator 22.0.1, SVG Export Plug-In . SVG Version: 6.00 Build 0)  -->
<svg version="1.1" id="Capa_1" xmlns="http://www.w3.org/2000/svg" xmlns:xlink="http://www.w3.org/1999/xlink" x="0px" y="0px"
	 viewBox="0 0 110 90" style="enable-background:new 0 0 110 90;" xml:space="preserve">
<style type="text/css">
	.st0{fill:url(#SVGID_1_);}
	.st1{fill:url(#SVGID_2_);}
	.st2{fill:#474244;}
	.st3{fill:#B53E45;}
	.st4{font-family:'Adelle-Bold';}
	.st5{font-size:12.8322px;}
</style>
<g>
	<g>
		<g>
			<linearGradient id="SVGID_1_" gradientUnits="userSpaceOnUse" x1="34.5578" y1="10.9739" x2="74.9497" y2="51.3657">
				<stop  offset="0" style="stop-color:#FFFFFF"/>
				<stop  offset="1" style="stop-color:#E2E4E8"/>
			</linearGradient>
			<path class="st0" d="M71.1,53H38.4c-3,0-5.4-2.4-5.4-5.4V14.8c0-3,2.4-5.4,5.4-5.4h32.7c3,0,5.4,2.4,5.4,5.4v32.7
				C76.5,50.5,74.1,53,71.1,53z"/>
			<linearGradient id="SVGID_2_" gradientUnits="userSpaceOnUse" x1="34.7906" y1="11.2067" x2="74.7168" y2="51.1329">
				<stop  offset="0" style="stop-color:#F1F2F4"/>
				<stop  offset="1" style="stop-color:#FFFFFF"/>
			</linearGradient>
			<path class="st1" d="M38.4,52.6c-2.8,0-5.1-2.3-5.1-5.1V14.8c0-2.8,2.3-5.1,5.1-5.1h32.7c2.8,0,5.1,2.3,5.1,5.1v32.7
				c0,2.8-2.3,5.1-5.1,5.1H38.4z"/>
		</g>
	</g>
	<g>
		<path class="st2" d="M41.8,24.7v17.5c0,1.9,1.5,3.5,3.5,3.5h18.9c1.9,0,3.5-1.5,3.5-3.5V29.1l-3.5,4.1v9H45.3V29.7
			c0-0.2,0-0.4,0-0.7v-4.3h15.8l2.9-3.5H45.3C43.4,21.3,41.8,22.8,41.8,24.7z"/>
		<path class="st3" d="M50.5,28c-0.8-0.7-1.9-0.6-2.7,0.1c-0.8,0.8-0.8,2,0,2.8l7,7.2l1.8,1.8l1.6-2l5.9-7.5l3.5-4.4l5.7-7.3
			c0.5-0.6,0.4-1.6-0.2-2.1c-0.6-0.6-1.6-0.5-2.2,0.1l-4.8,5.3l-2.5,2.8L56.3,33L50.5,28z"/>
	</g>
	<text transform="matrix(1 0 0 1 4.9685 77.4635)" class="st3 st4 st5">INTELIGENCIA </text>
</g>
</svg>
