<?xml version="1.0" encoding="utf-8"?>
<!-- Generator: Adobe Illustrator 22.0.1, SVG Export Plug-In . SVG Version: 6.00 Build 0)  -->
<svg version="1.1" id="Capa_1" xmlns="http://www.w3.org/2000/svg" xmlns:xlink="http://www.w3.org/1999/xlink" x="0px" y="0px"
	 viewBox="0 0 110 90" style="enable-background:new 0 0 110 90;" xml:space="preserve">
<style type="text/css">
	.st0{fill:url(#SVGID_1_);}
	.st1{fill:url(#SVGID_2_);}
	.st2{fill:#B53E45;}
	.st3{fill:#605C5E;}
</style>
<g>
	<g>
		<linearGradient id="SVGID_1_" gradientUnits="userSpaceOnUse" x1="24.8798" y1="7.6794" x2="85.1202" y2="67.9199">
			<stop  offset="0" style="stop-color:#FFFFFF"/>
			<stop  offset="1" style="stop-color:#E2E4E8"/>
		</linearGradient>
		<path class="st0" d="M79.4,70.3H30.6c-4.5,0-8.1-3.6-8.1-8.1V13.4c0-4.5,3.6-8.1,8.1-8.1h48.8c4.5,0,8.1,3.6,8.1,8.1v48.8
			C87.5,66.7,83.9,70.3,79.4,70.3z"/>
		<linearGradient id="SVGID_2_" gradientUnits="userSpaceOnUse" x1="25.227" y1="8.0267" x2="84.773" y2="67.5727">
			<stop  offset="0" style="stop-color:#F1F2F4"/>
			<stop  offset="1" style="stop-color:#FFFFFF"/>
		</linearGradient>
		<path class="st1" d="M30.6,69.8c-4.2,0-7.6-3.4-7.6-7.6V13.4c0-4.2,3.4-7.6,7.6-7.6h48.8c4.2,0,7.6,3.4,7.6,7.6v48.8
			c0,4.2-3.4,7.6-7.6,7.6H30.6z"/>
	</g>
</g>
<g>
	<g>
		<path class="st2" d="M13.2,88.3v-1.3l1.4-0.2L14,85H9.7l-0.6,1.8l1.3,0.2v1.3H5.7v-1.3l0.8-0.2c0.2-0.1,0.4-0.1,0.4-0.3l3.7-10.5
			h3l3.7,10.5c0.1,0.2,0.2,0.2,0.4,0.3l0.8,0.2v1.3H13.2z M11.9,78.5h-0.1l-1.6,4.6h3.2L11.9,78.5z"/>
		<path class="st2" d="M28,88.3l-5.4-8.9v7.1c0,0.3,0,0.3,0.3,0.3l1.1,0.1v1.3h-4.7v-1.3l1.1-0.1c0.2,0,0.3-0.1,0.3-0.3v-8.8
			c0-0.3,0-0.3-0.3-0.3l-1.1-0.1v-1.3h4.2l5.4,8.9v-7.1c0-0.3,0-0.3-0.3-0.3l-1.1-0.1v-1.4h4.7v1.4l-1.1,0.1c-0.3,0-0.3,0.1-0.3,0.3
			v10.5H28z"/>
		<path class="st2" d="M39.5,88.3v-1.3l1.4-0.2L40.3,85H36l-0.6,1.8l1.3,0.2v1.3H32v-1.3l0.8-0.2c0.2-0.1,0.4-0.1,0.4-0.3L37,75.9h3
			l3.7,10.5c0.1,0.2,0.2,0.2,0.4,0.3l0.8,0.2v1.3H39.5z M38.3,78.5h-0.1l-1.6,4.6h3.2L38.3,78.5z"/>
		<path class="st2" d="M45.6,88.3v-1.3l1.1-0.1c0.2,0,0.3-0.1,0.3-0.3v-8.7c0-0.3,0-0.3-0.3-0.3l-1.1-0.1v-1.3h5.7v1.3l-1.4,0.1
			c-0.3,0-0.3,0.1-0.3,0.3v8.7h3c0.2,0,0.2,0,0.3-0.2l0.3-1.7h1.9v3.7H45.6z"/>
		<path class="st2" d="M56.2,88.3v-1.3l1.2-0.1c0.2,0,0.3-0.1,0.3-0.3v-8.7c0-0.3,0-0.3-0.3-0.3l-1.2-0.1v-1.4H62v1.4l-1.3,0.1
			c-0.3,0-0.3,0.1-0.3,0.3v8.7c0,0.3,0,0.3,0.3,0.3l1.3,0.1v1.3H56.2z M57.8,75.2L57.2,74l3.5-2.1l0.9,1.7L57.8,75.2z"/>
		<path class="st2" d="M65.1,88.3v-1.3l1.8-0.1c0.2,0,0.3-0.1,0.3-0.3v-8.7h-1.8c-0.2,0-0.2,0-0.3,0.2l-0.3,1.5h-1.9v-3.5h11v3.5
			h-1.9L71.8,78c0-0.2-0.1-0.2-0.3-0.2h-1.8v8.7c0,0.2,0,0.3,0.3,0.3l1.9,0.1v1.3H65.1z"/>
		<path class="st2" d="M75,88.3v-1.3l1.2-0.1c0.2,0,0.3-0.1,0.3-0.3v-8.7c0-0.3,0-0.3-0.3-0.3L75,77.3v-1.4h5.7v1.4l-1.3,0.1
			c-0.3,0-0.3,0.1-0.3,0.3v8.7c0,0.3,0,0.3,0.3,0.3l1.3,0.1v1.3H75z"/>
		<path class="st2" d="M92,87.5c-1,0.6-2.7,0.9-4.3,0.9c-4.3,0-6-2.5-6-6.4c0-3.6,2.1-6.3,6.3-6.3c1.4,0,2.9,0.4,3.9,1V80l-1.9-0.2
			l-0.3-1.7c0-0.2-0.1-0.3-0.3-0.3c-0.4-0.1-1-0.2-1.5-0.2c-2.2,0-3.6,1.5-3.6,4.4c0,3,1.3,4.5,3.4,4.5c0.6,0,1.3-0.1,1.7-0.2
			c0.2-0.1,0.3-0.1,0.3-0.4l0.3-1.6H92V87.5z"/>
		<path class="st2" d="M100.3,88.3v-1.3l1.4-0.2l-0.6-1.8h-4.2l-0.6,1.8l1.3,0.2v1.3h-4.8v-1.3l0.8-0.2c0.2-0.1,0.4-0.1,0.4-0.3
			l3.7-10.5h3l3.7,10.5c0.1,0.2,0.2,0.2,0.4,0.3l0.8,0.2v1.3H100.3z M99.1,78.5H99l-1.6,4.6h3.2L99.1,78.5z"/>
	</g>
</g>
<g>
	<g>
		<g>
			<path class="st2" d="M3527.4,1903.7c-0.3,0-0.7,0.3-0.7,0.7v13.6c0,0.3,0.3,0.7,0.7,0.7h6.1c0.3,0,0.7-0.3,0.7-0.7v-13.6
				c0-0.3-0.3-0.7-0.7-0.7H3527.4z"/>
			<path class="st2" d="M3537.4,1897.9c-0.3,0-0.7,0.3-0.7,0.7v19.4c0,0.3,0.3,0.7,0.7,0.7h6.1c0.3,0,0.7-0.3,0.7-0.7v-19.4
				c0-0.3-0.3-0.7-0.7-0.7H3537.4z"/>
			<path class="st2" d="M3547.3,1900c-0.3,0-0.7,0.3-0.7,0.7v17.3c0,0.3,0.3,0.7,0.7,0.7h6.1c0.3,0,0.7-0.3,0.7-0.7v-17.3
				c0-0.3-0.3-0.7-0.7-0.7H3547.3z"/>
			<path class="st3" d="M3557.3,1894.8c-0.3,0-0.7,0.3-0.7,0.7v22.5c0,0.3,0.3,0.7,0.7,0.7h6.1c0.3,0,0.7-0.3,0.7-0.7v-22.5
				c0-0.3-0.3-0.7-0.7-0.7H3557.3z"/>
			<path class="st3" d="M3529,1893.4c1.4-0.8,3.2-0.3,4,1.1c0.8,1.4,0.3,3.2-1.1,4c0,0,0,0,0,0c-1.4,0.8-3.2,0.3-4-1.1
				C3527.2,1896,3527.6,1894.2,3529,1893.4C3529,1893.4,3529,1893.4,3529,1893.4z"/>
			<path class="st3" d="M3539,1887.5c1.4-0.8,3.2-0.3,4,1.1c0.8,1.4,0.3,3.2-1.1,4c0,0,0,0,0,0c-1.4,0.8-3.2,0.3-4-1.1
				S3537.6,1888.3,3539,1887.5C3539,1887.5,3539,1887.5,3539,1887.5z"/>
			<path class="st3" d="M3548.9,1889.8c1.4-0.8,3.2-0.3,4,1.1c0.8,1.4,0.3,3.2-1.1,4c0,0,0,0,0,0c-1.4,0.8-3.2,0.3-4-1.1
				S3547.5,1890.6,3548.9,1889.8C3548.9,1889.8,3548.9,1889.8,3548.9,1889.8z"/>
			<path class="st3" d="M3558.9,1884.6c1.4-0.8,3.2-0.3,4,1.1c0.8,1.4,0.3,3.2-1.1,4c0,0,0,0,0,0c-1.4,0.8-3.2,0.3-4-1.1
				S3557.5,1885.4,3558.9,1884.6C3558.9,1884.6,3558.9,1884.6,3558.9,1884.6z"/>
			<path class="st3" d="M3540.5,1889.3c-0.1,0-0.2,0-0.4,0.1l-9.6,5.8c-0.3,0.2-0.4,0.6-0.2,0.9c0.2,0.3,0.6,0.4,0.9,0.2l0,0
				l9.6-5.8c0.3-0.2,0.4-0.6,0.2-0.9C3540.9,1889.5,3540.7,1889.3,3540.5,1889.3z"/>
			<path class="st3" d="M3540.6,1889.4c-0.4,0-0.6,0.3-0.6,0.7c0,0.3,0.2,0.5,0.5,0.6l9.6,2.3c0.4,0.1,0.7-0.1,0.8-0.5
				s-0.1-0.7-0.5-0.8c0,0,0,0,0,0l-9.6-2.3C3540.7,1889.4,3540.7,1889.3,3540.6,1889.4z"/>
			<path class="st3" d="M3560.3,1886.5c-0.1,0-0.2,0-0.3,0.1l-9.7,5.2c-0.3,0.2-0.4,0.6-0.3,0.9c0.2,0.3,0.6,0.4,0.9,0.3l9.7-5.2
				c0.3-0.2,0.5-0.6,0.3-0.9C3560.8,1886.6,3560.5,1886.5,3560.3,1886.5z"/>
		</g>
	</g>
</g>
</svg>
