<?xml version="1.0" encoding="utf-8"?>
<!-- Generator: Adobe Illustrator 22.0.1, SVG Export Plug-In . SVG Version: 6.00 Build 0)  -->
<svg version="1.1" id="Capa_1" xmlns="http://www.w3.org/2000/svg" xmlns:xlink="http://www.w3.org/1999/xlink" x="0px" y="0px"
	 viewBox="0 0 110 90" style="enable-background:new 0 0 110 90;" xml:space="preserve">
<style type="text/css">
	.st0{fill:url(#SVGID_1_);}
	.st1{fill:url(#SVGID_2_);}
	.st2{fill:#474244;}
	.st3{fill:#B53E45;}
	.st4{font-family:'Adelle-Bold';}
	.st5{font-size:12.8322px;}
</style>
<g>
	<g>
		<g>
			<linearGradient id="SVGID_1_" gradientUnits="userSpaceOnUse" x1="25.5416" y1="7.3275" x2="84.4584" y2="66.2442">
				<stop  offset="0" style="stop-color:#FFFFFF"/>
				<stop  offset="1" style="stop-color:#E2E4E8"/>
			</linearGradient>
			<path class="st0" d="M78.8,68.6H31.2c-4.4,0-7.9-3.6-7.9-7.9V12.9c0-4.4,3.6-7.9,7.9-7.9h47.7c4.4,0,7.9,3.6,7.9,7.9v47.7
				C86.8,65,83.2,68.6,78.8,68.6z"/>
			<linearGradient id="SVGID_2_" gradientUnits="userSpaceOnUse" x1="25.8812" y1="7.6671" x2="84.1188" y2="65.9046">
				<stop  offset="0" style="stop-color:#F1F2F4"/>
				<stop  offset="1" style="stop-color:#FFFFFF"/>
			</linearGradient>
			<path class="st1" d="M31.2,68.1c-4.1,0-7.5-3.4-7.5-7.5V12.9c0-4.1,3.4-7.5,7.5-7.5h47.7c4.1,0,7.5,3.4,7.5,7.5v47.7
				c0,4.1-3.4,7.5-7.5,7.5H31.2z"/>
		</g>
	</g>
	<g>
		<path class="st2" d="M36.2,27.4v25.5c0,2.8,2.3,5,5,5h27.5c2.8,0,5-2.3,5-5V33.7l-5,6v13.2H41.2V34.7c0-0.3,0-0.6,0-1v-6.3h23
			l4.2-5H41.2C38.4,22.3,36.2,24.6,36.2,27.4z"/>
		<path class="st3" d="M48.8,32.1c-1.1-1-2.8-0.9-3.9,0.1c-1.1,1.1-1.1,2.9,0,4.1l10.2,10.4l2.6,2.7l2.3-3l8.6-10.9l5-6.4l8.4-10.7
			c0.7-0.9,0.6-2.3-0.3-3.1c-0.9-0.8-2.4-0.8-3.2,0.2l-7,7.8L68,27.4l-10.8,12L48.8,32.1z"/>
	</g>
</g>
<text transform="matrix(1 0 0 1 6.2644 84.4635)" class="st3 st4 st5">INTELIGENCIA</text>
</svg>
