<?xml version="1.0" encoding="utf-8"?>
<!-- Generator: Adobe Illustrator 22.0.1, SVG Export Plug-In . SVG Version: 6.00 Build 0)  -->
<svg version="1.1" id="Capa_1" xmlns="http://www.w3.org/2000/svg" xmlns:xlink="http://www.w3.org/1999/xlink" x="0px" y="0px"
	 viewBox="0 0 110 90" style="enable-background:new 0 0 110 90;" xml:space="preserve">
<style type="text/css">
	.st0{fill:url(#SVGID_1_);}
	.st1{fill:url(#SVGID_2_);}
	.st2{fill:#474244;}
	.st3{fill:#B53E45;}
	.st4{font-family:'Adelle-Bold';}
	.st5{font-size:12.8322px;}
</style>
<g>
	<g>
		<g>
			<linearGradient id="SVGID_1_" gradientUnits="userSpaceOnUse" x1="24.8798" y1="6.6656" x2="85.1202" y2="66.9061">
				<stop  offset="0" style="stop-color:#FFFFFF"/>
				<stop  offset="1" style="stop-color:#E2E4E8"/>
			</linearGradient>
			<path class="st0" d="M79.4,69.3H30.6c-4.5,0-8.1-3.6-8.1-8.1V12.4c0-4.5,3.6-8.1,8.1-8.1h48.8c4.5,0,8.1,3.6,8.1,8.1v48.8
				C87.5,65.6,83.9,69.3,79.4,69.3z"/>
			<linearGradient id="SVGID_2_" gradientUnits="userSpaceOnUse" x1="25.227" y1="7.0128" x2="84.773" y2="66.5589">
				<stop  offset="0" style="stop-color:#F1F2F4"/>
				<stop  offset="1" style="stop-color:#FFFFFF"/>
			</linearGradient>
			<path class="st1" d="M30.6,68.8c-4.2,0-7.6-3.4-7.6-7.6V12.4c0-4.2,3.4-7.6,7.6-7.6h48.8c4.2,0,7.6,3.4,7.6,7.6v48.8
				c0,4.2-3.4,7.6-7.6,7.6H30.6z"/>
		</g>
	</g>
	<g>
		<path class="st2" d="M35.7,27.2v26.1c0,2.9,2.3,5.2,5.2,5.2h28.1c2.9,0,5.2-2.3,5.2-5.2V33.6l-5.2,6.1v13.5H40.9V34.6
			c0-0.3,0-0.7,0-1v-6.5h23.6l4.3-5.2H40.9C38.1,22,35.7,24.3,35.7,27.2z"/>
		<path class="st3" d="M48.7,32c-1.1-1-2.9-1-4,0.1c-1.2,1.1-1.2,3,0,4.1L55.2,47l2.7,2.8l2.4-3l8.8-11.2l5.2-6.6L82.8,18
			c0.7-0.9,0.6-2.3-0.3-3.1c-0.9-0.9-2.4-0.8-3.3,0.2l-7.2,8l-3.7,4.2L57.3,39.5L48.7,32z"/>
	</g>
</g>
<text transform="matrix(1 0 0 1 6.2644 84.4635)" class="st3 st4 st5">INTELIGENCIA</text>
</svg>
