<?xml version="1.0" encoding="utf-8"?>
<!-- Generator: Adobe Illustrator 22.0.1, SVG Export Plug-In . SVG Version: 6.00 Build 0)  -->
<svg version="1.1" id="Capa_1" xmlns="http://www.w3.org/2000/svg" xmlns:xlink="http://www.w3.org/1999/xlink" x="0px" y="0px"
	 viewBox="0 0 110 90" style="enable-background:new 0 0 110 90;" xml:space="preserve">
<style type="text/css">
	.st0{fill:url(#SVGID_1_);}
	.st1{fill:url(#SVGID_2_);}
	.st2{fill:#B53E45;}
	.st3{fill:#FFFFFF;}
	.st4{fill:#443E44;}
	.st5{font-family:'Adelle-Bold';}
	.st6{font-size:10.3946px;}
</style>
<g>
	<g>
		<g>
			<linearGradient id="SVGID_1_" gradientUnits="userSpaceOnUse" x1="24.8798" y1="8.7012" x2="85.1202" y2="68.9416">
				<stop  offset="0" style="stop-color:#FFFFFF"/>
				<stop  offset="1" style="stop-color:#E2E4E8"/>
			</linearGradient>
			<path class="st0" d="M79.4,71.3H30.6c-4.5,0-8.1-3.6-8.1-8.1V14.4c0-4.5,3.6-8.1,8.1-8.1h48.8c4.5,0,8.1,3.6,8.1,8.1v48.8
				C87.5,67.7,83.9,71.3,79.4,71.3z"/>
			<linearGradient id="SVGID_2_" gradientUnits="userSpaceOnUse" x1="25.227" y1="9.0484" x2="84.773" y2="68.5944">
				<stop  offset="0" style="stop-color:#F1F2F4"/>
				<stop  offset="1" style="stop-color:#FFFFFF"/>
			</linearGradient>
			<path class="st1" d="M30.6,70.8c-4.2,0-7.6-3.4-7.6-7.6V14.4c0-4.2,3.4-7.6,7.6-7.6h48.8c4.2,0,7.6,3.4,7.6,7.6v48.8
				c0,4.2-3.4,7.6-7.6,7.6H30.6z"/>
		</g>
	</g>
	<g>
		<g>
			<g>
				<path class="st2" d="M79,35.4c0-10.8-8.8-19.6-19.6-19.6c-10.8,0-19.6,8.8-19.6,19.6c0,0.1,0,0.1,0,0.2c0,0,0,0,0,0l-3.4,7.9
					c-0.3,0.7-0.2,1.5,0.2,2.1c0.4,0.6,1.1,1,1.8,1h3.2v7.8c0,1.2,1,2.2,2.2,2.2c0.1,0,0.2,0,0.3,0l8.1-1.3v8.2
					c0,0.3,0.2,0.5,0.5,0.5h18.4c0.3,0,0.5-0.2,0.5-0.5V50.6C76.3,46.9,79,41.3,79,35.4z"/>
				<path class="st3" d="M72.7,30.1c0,4.8-6,8.6-13.4,8.6S46,34.9,46,30.1s6-10.3,13.4-10.3S72.7,25.4,72.7,30.1z"/>
			</g>
		</g>
		<g>
			<path class="st4" d="M65.1,25.7c0.6,0,1.1-0.5,1.1-1.1c0-0.6-0.5-1.1-1.1-1.1c-0.6,0-1.1,0.5-1.1,1.1c0,0.3,0.1,0.6,0.3,0.8
				l-0.9,2.1h-2.6c0,0.1,0,0.2,0,0.3c0,0.1,0,0.2,0,0.3h2.4l-0.7,1.7c-0.1,0-0.3,0-0.4,0.1l-1.7-1.7c0-0.1,0.1-0.3,0.1-0.4
				c0-0.6-0.5-1.1-1.1-1.1c-0.6,0-1.1,0.5-1.1,1.1c0,0.2,0,0.3,0.1,0.5l-1.4,1.6c-0.1,0-0.2,0-0.3,0c-0.6,0-1.1,0.5-1.1,1.1
				c0,0.1,0,0.3,0.1,0.4L53.8,33c-0.1,0-0.3-0.1-0.4-0.1c-0.6,0-1.1,0.5-1.1,1.1c0,0.6,0.5,1.1,1.1,1.1c0.6,0,1.1-0.5,1.1-1.1
				c0-0.1,0-0.3-0.1-0.4l1.7-1.7c0.1,0,0.3,0.1,0.4,0.1c0.6,0,1.1-0.5,1.1-1.1c0-0.2,0-0.3-0.1-0.5l1.4-1.6c0.1,0,0.2,0,0.3,0
				c0.1,0,0.3,0,0.4-0.1l1.7,1.7c0,0.1-0.1,0.3-0.1,0.4c0,0.6,0.5,1.1,1.1,1.1c0.6,0,1.1-0.5,1.1-1.1c0-0.3-0.1-0.6-0.3-0.8l0.9-2.1
				h3.4v-0.5h-3.2L65.1,25.7z M65.5,24.6c0,0.2-0.2,0.4-0.4,0.4c-0.2,0-0.4-0.2-0.4-0.4c0-0.2,0.2-0.4,0.4-0.4
				C65.3,24.2,65.5,24.4,65.5,24.6z M62.9,30.9c0,0.2-0.2,0.4-0.4,0.4c-0.2,0-0.4-0.2-0.4-0.4c0-0.2,0.2-0.4,0.4-0.4
				C62.7,30.4,62.9,30.6,62.9,30.9z M59.3,28.2c-0.2,0-0.4-0.2-0.4-0.4c0-0.2,0.2-0.4,0.4-0.4c0.2,0,0.4,0.2,0.4,0.4
				C59.7,28,59.5,28.2,59.3,28.2z M56.1,30.9c0-0.2,0.2-0.4,0.4-0.4s0.4,0.2,0.4,0.4c0,0.2-0.2,0.4-0.4,0.4S56.1,31.1,56.1,30.9z
				 M53,34c0-0.2,0.2-0.4,0.4-0.4s0.4,0.2,0.4,0.4s-0.2,0.4-0.4,0.4S53,34.2,53,34z"/>
			<path class="st4" d="M63.6,24.6c0-0.1,0-0.2,0-0.3H51.2v0.5h12.4C63.6,24.8,63.6,24.7,63.6,24.6z"/>
			<path class="st4" d="M66.6,24.3c0,0.1,0,0.2,0,0.3c0,0.1,0,0.2,0,0.3h1v-0.5H66.6z"/>
			<path class="st4" d="M57.8,27.7c0-0.1,0-0.2,0-0.3h-6.6V28h6.6C57.8,27.9,57.8,27.8,57.8,27.7z"/>
			<path class="st4" d="M64,30.9c0,0.1,0,0.2,0,0.3h3.6v-0.5h-3.6C63.9,30.7,64,30.8,64,30.9z"/>
			<path class="st4" d="M58,30.6c0,0.1,0,0.2,0,0.3c0,0.1,0,0.2,0,0.3h3c0-0.1,0-0.2,0-0.3c0-0.1,0-0.2,0-0.3H58z"/>
			<path class="st4" d="M55,30.9c0-0.1,0-0.2,0-0.3h-3.9v0.5H55C55,31.1,55,31,55,30.9z"/>
			<path class="st4" d="M51.2,33.7v0.5h0.8c0-0.1,0-0.2,0-0.3c0-0.1,0-0.2,0-0.3H51.2z"/>
			<path class="st4" d="M54.9,34c0,0.1,0,0.2,0,0.3h12.6v-0.5H54.9C54.9,33.8,54.9,33.9,54.9,34z"/>
			<circle class="st3" cx="65.1" cy="24.6" r="0.4"/>
			<path class="st3" d="M59.7,27.7c0-0.2-0.2-0.4-0.4-0.4c-0.2,0-0.4,0.2-0.4,0.4c0,0.2,0.2,0.4,0.4,0.4
				C59.5,28.2,59.7,28,59.7,27.7z"/>
			<path class="st3" d="M62,30.9c0,0.2,0.2,0.4,0.4,0.4c0.2,0,0.4-0.2,0.4-0.4c0-0.2-0.2-0.4-0.4-0.4C62.2,30.4,62,30.6,62,30.9z"/>
			<circle class="st3" cx="56.5" cy="30.9" r="0.4"/>
			<circle class="st3" cx="53.4" cy="34" r="0.4"/>
		</g>
	</g>
</g>
<g>
	<text transform="matrix(1 0 0 1 13.4053 85.55)" class="st2 st5 st6">HUMOR SOCIAL</text>
</g>
</svg>
