<?xml version="1.0" encoding="utf-8"?>
<!-- Generator: Adobe Illustrator 22.0.1, SVG Export Plug-In . SVG Version: 6.00 Build 0)  -->
<svg version="1.1" id="Capa_1" xmlns="http://www.w3.org/2000/svg" xmlns:xlink="http://www.w3.org/1999/xlink" x="0px" y="0px"
	 viewBox="0 0 110 90" style="enable-background:new 0 0 110 90;" xml:space="preserve">
<style type="text/css">
	.st0{fill:url(#SVGID_1_);}
	.st1{fill:url(#SVGID_2_);}
	.st2{fill:#B53E45;}
	.st3{fill:#605C5E;}
	.st4{fill:#1E1A19;}
</style>
<g>
	<g>
		<g>
			<linearGradient id="SVGID_1_" gradientUnits="userSpaceOnUse" x1="24.8798" y1="7.567" x2="85.1202" y2="67.8075">
				<stop  offset="0" style="stop-color:#FFFFFF"/>
				<stop  offset="1" style="stop-color:#E2E4E8"/>
			</linearGradient>
			<path class="st0" d="M79.4,70.2H30.6c-4.5,0-8.1-3.6-8.1-8.1V13.3c0-4.5,3.6-8.1,8.1-8.1h48.8c4.5,0,8.1,3.6,8.1,8.1v48.8
				C87.5,66.5,83.9,70.2,79.4,70.2z"/>
			<linearGradient id="SVGID_2_" gradientUnits="userSpaceOnUse" x1="25.227" y1="7.9143" x2="84.773" y2="67.4603">
				<stop  offset="0" style="stop-color:#F1F2F4"/>
				<stop  offset="1" style="stop-color:#FFFFFF"/>
			</linearGradient>
			<path class="st1" d="M30.6,69.7c-4.2,0-7.6-3.4-7.6-7.6V13.3c0-4.2,3.4-7.6,7.6-7.6h48.8c4.2,0,7.6,3.4,7.6,7.6v48.8
				c0,4.2-3.4,7.6-7.6,7.6H30.6z"/>
		</g>
	</g>
	<g>
		<circle class="st2" cx="55.8" cy="50.5" r="3.4"/>
		<path class="st2" d="M55.8,54.8L55.8,54.8c-3.7,0-6.8,0.9-6.8,4.6v1.2c0,0.7,0.5,1.2,1.2,1.2h11.2c0.7,0,1.2-0.5,1.2-1.2v-1.2
			C62.6,55.7,59.6,54.8,55.8,54.8z"/>
		<ellipse transform="matrix(0.9845 -0.1753 0.1753 0.9845 -2.7327 10.1041)" class="st2" cx="55.8" cy="20.5" rx="3.4" ry="3.4"/>
		<path class="st2" d="M50.2,31.8h11.2c0.7,0,1.2-0.5,1.2-1.2v-1.2c0-3.7-3.1-4.6-6.8-4.6h0c-3.7,0-6.8,0.9-6.8,4.6v1.2
			C49,31.3,49.6,31.8,50.2,31.8z"/>
		<circle class="st3" cx="72.1" cy="34.5" r="3.4"/>
		<path class="st3" d="M72.1,38.8L72.1,38.8c-3.7,0-6.8,0.9-6.8,4.6v1.2c0,0.7,0.5,1.2,1.2,1.2h11.2c0.7,0,1.2-0.5,1.2-1.2v-1.2
			C78.9,39.7,75.8,38.8,72.1,38.8z"/>
		<circle class="st3" cx="39.9" cy="34.5" r="3.4"/>
		<path class="st3" d="M46.7,44.6v-1.2c0-3.7-3.1-4.6-6.8-4.6l0,0c-3.7,0-6.8,0.9-6.8,4.6v1.2c0,0.7,0.5,1.2,1.2,1.2h11.2
			C46.2,45.8,46.7,45.3,46.7,44.6z"/>
		<path class="st4" d="M66.5,47.3l-6.3,6.3c0.5,0.2,1,0.4,1.4,0.6c0,0,0.1,0,0.1,0.1l7-7L66.5,47.3C66.5,47.3,66.5,47.3,66.5,47.3z"
			/>
		<path class="st4" d="M50.5,54.2c0.4-0.2,0.9-0.4,1.4-0.6l-6.3-6.3c0,0,0,0,0,0h-2.1L50.5,54.2C50.4,54.3,50.4,54.2,50.5,54.2z"/>
		<path class="st4" d="M66.2,38.6l-5.5-5.5h-2.2l6.5,6.5C65.4,39.2,65.8,38.9,66.2,38.6z"/>
		<path class="st4" d="M46.9,39.6l6.5-6.5h-2.2l-5.5,5.5C46.2,38.9,46.6,39.2,46.9,39.6z"/>
	</g>
</g>
<g>
	<g>
		<path class="st2" d="M11.4,86.9l-2.7-8.3c-0.1-0.2-0.2-0.2-0.3-0.2l-0.6-0.1l0.1-1H12v1l-1.1,0.1l2,6.7H13l1.9-6.7l-1.1-0.1l0.1-1
			h3.5v1L17,78.4c-0.2,0-0.3,0.1-0.3,0.3l-2.5,8.3H11.4z"/>
		<path class="st2" d="M18.1,86.9v-1l1-0.1c0.2,0,0.2-0.1,0.2-0.3v-6.9c0-0.2,0-0.3-0.2-0.3l-1-0.1v-1.1h4.5v1.1l-1,0.1
			c-0.2,0-0.2,0.1-0.2,0.3v6.9c0,0.2,0,0.2,0.2,0.3l1,0.1v1H18.1z"/>
		<path class="st2" d="M30.5,86.9l-4.3-7v5.6c0,0.2,0,0.2,0.2,0.3l0.9,0.1v1h-3.7v-1l0.8-0.1c0.2,0,0.2-0.1,0.2-0.3v-6.9
			c0-0.2,0-0.3-0.2-0.3l-0.8-0.1v-1h3.3l4.2,7v-5.6c0-0.2,0-0.3-0.2-0.3L30,78.2v-1.1h3.7v1.1l-0.9,0.1c-0.2,0-0.2,0.1-0.2,0.3v8.3
			H30.5z"/>
		<path class="st2" d="M42.6,86.3c-0.8,0.5-2.1,0.7-3.4,0.7c-3.3,0-4.7-1.9-4.7-5.1c0-2.9,1.7-5,5-5c1.1,0,2.3,0.3,3.1,0.8v2.6
			l-1.5-0.1l-0.2-1.3c0-0.1-0.1-0.2-0.2-0.2c-0.3-0.1-0.8-0.2-1.2-0.2c-1.7,0-2.8,1.2-2.8,3.4c0,2.4,1,3.5,2.7,3.5
			c0.4,0,1-0.1,1.3-0.2c0.2,0,0.2-0.1,0.2-0.3l0.2-1.2h1.4V86.3z"/>
		<path class="st2" d="M50.4,78.6c0-0.2,0-0.3-0.2-0.3l-0.8-0.1v-1.1h4v1.1l-0.9,0.1c-0.2,0-0.2,0.1-0.2,0.3v4.8
			c0,2.6-1.5,3.6-3.8,3.6c-2.7,0-3.8-1.2-3.8-3.7v-4.8c0-0.2,0-0.3-0.2-0.3l-0.8-0.1v-1.1h4.2v1.1l-0.9,0.1c-0.2,0-0.2,0.1-0.2,0.3
			V83c0,1.5,0.3,2.4,1.8,2.4c1.4,0,1.9-0.6,1.9-2.3V78.6z"/>
		<path class="st2" d="M54.2,86.9v-1.1l0.8-0.1c0.2,0,0.2-0.1,0.2-0.3v-6.9c0-0.2,0-0.3-0.2-0.3l-0.8-0.1v-1.1h4.5v1.1l-1.1,0.1
			c-0.2,0-0.2,0.1-0.2,0.3v6.9h2.4c0.1,0,0.2,0,0.2-0.1l0.2-1.3h1.5v2.9H54.2z"/>
		<path class="st2" d="M68,86.9v-1l1.1-0.1l-0.5-1.4h-3.3l-0.5,1.4l1.1,0.1v1h-3.8v-1l0.6-0.1c0.2,0,0.3-0.1,0.3-0.3l2.9-8.3h2.4
			l2.9,8.3c0.1,0.2,0.2,0.2,0.3,0.2l0.6,0.1v1H68z M67,79.2L67,79.2l-1.3,3.7h2.5L67,79.2z"/>
		<path class="st2" d="M80.4,86.3c-0.8,0.5-2.1,0.7-3.4,0.7c-3.3,0-4.7-1.9-4.7-5.1c0-2.9,1.7-5,5-5c1.1,0,2.3,0.3,3.1,0.8v2.6
			l-1.5-0.1l-0.2-1.3c0-0.1-0.1-0.2-0.2-0.2c-0.3-0.1-0.8-0.2-1.2-0.2c-1.7,0-2.8,1.2-2.8,3.4c0,2.4,1,3.5,2.7,3.5
			c0.4,0,1-0.1,1.3-0.2c0.2,0,0.2-0.1,0.2-0.3l0.2-1.2h1.4V86.3z"/>
		<path class="st2" d="M81.5,86.9v-1l1-0.1c0.2,0,0.2-0.1,0.2-0.3v-6.9c0-0.2,0-0.3-0.2-0.3l-1-0.1v-1.1H86v1.1l-1,0.1
			c-0.2,0-0.2,0.1-0.2,0.3v6.9c0,0.2,0,0.2,0.2,0.3l1,0.1v1H81.5z"/>
		<path class="st2" d="M86.8,82.1c0-2.9,1.6-5.1,4.8-5.1c3.2,0,4.6,2.2,4.6,4.9c0,3.2-1.5,5.2-4.7,5.2C88.2,87.1,86.8,85,86.8,82.1z
			 M94.1,82c0-2.3-0.9-3.3-2.4-3.3c-1.5,0-2.6,1-2.6,3.3c0,2.4,1,3.4,2.6,3.4C93,85.4,94.1,84.5,94.1,82z M90.6,76.5l-0.5-0.9
			l2.8-1.6l0.7,1.3L90.6,76.5z"/>
		<path class="st2" d="M104,86.9l-4.3-7v5.6c0,0.2,0,0.2,0.2,0.3l0.9,0.1v1h-3.7v-1l0.8-0.1c0.2,0,0.2-0.1,0.2-0.3v-6.9
			c0-0.2,0-0.3-0.2-0.3l-0.8-0.1v-1h3.3l4.2,7v-5.6c0-0.2,0-0.3-0.2-0.3l-0.8-0.1v-1.1h3.7v1.1l-0.9,0.1c-0.2,0-0.2,0.1-0.2,0.3v8.3
			H104z"/>
	</g>
</g>
</svg>
