<?xml version="1.0" encoding="utf-8"?>
<!-- Generator: Adobe Illustrator 22.0.1, SVG Export Plug-In . SVG Version: 6.00 Build 0)  -->
<svg version="1.1" id="Capa_1" xmlns="http://www.w3.org/2000/svg" xmlns:xlink="http://www.w3.org/1999/xlink" x="0px" y="0px"
	 viewBox="0 0 110 90" style="enable-background:new 0 0 110 90;" xml:space="preserve">
<style type="text/css">
	.st0{fill:url(#SVGID_1_);}
	.st1{fill:url(#SVGID_2_);}
	.st2{fill:#B53E45;}
	.st3{fill:#FFFFFF;}
	.st4{fill:#443E44;}
</style>
<g>
	<g>
		<g>
			<linearGradient id="SVGID_1_" gradientUnits="userSpaceOnUse" x1="24.8798" y1="8.7012" x2="85.1202" y2="68.9416">
				<stop  offset="0" style="stop-color:#FFFFFF"/>
				<stop  offset="1" style="stop-color:#E2E4E8"/>
			</linearGradient>
			<path class="st0" d="M79.4,71.3H30.6c-4.5,0-8.1-3.6-8.1-8.1V14.4c0-4.5,3.6-8.1,8.1-8.1h48.8c4.5,0,8.1,3.6,8.1,8.1v48.8
				C87.5,67.7,83.9,71.3,79.4,71.3z"/>
			<linearGradient id="SVGID_2_" gradientUnits="userSpaceOnUse" x1="25.227" y1="9.0484" x2="84.773" y2="68.5944">
				<stop  offset="0" style="stop-color:#F1F2F4"/>
				<stop  offset="1" style="stop-color:#FFFFFF"/>
			</linearGradient>
			<path class="st1" d="M30.6,70.8c-4.2,0-7.6-3.4-7.6-7.6V14.4c0-4.2,3.4-7.6,7.6-7.6h48.8c4.2,0,7.6,3.4,7.6,7.6v48.8
				c0,4.2-3.4,7.6-7.6,7.6H30.6z"/>
		</g>
	</g>
	<g>
		<g>
			<g>
				<path class="st2" d="M79,35.4c0-10.8-8.8-19.6-19.6-19.6c-10.8,0-19.6,8.8-19.6,19.6c0,0.1,0,0.1,0,0.2c0,0,0,0,0,0l-3.4,7.9
					c-0.3,0.7-0.2,1.5,0.2,2.1c0.4,0.6,1.1,1,1.8,1h3.2v7.8c0,1.2,1,2.2,2.2,2.2c0.1,0,0.2,0,0.3,0l8.1-1.3v8.2
					c0,0.3,0.2,0.5,0.5,0.5h18.4c0.3,0,0.5-0.2,0.5-0.5V50.6C76.3,46.9,79,41.3,79,35.4z"/>
				<path class="st3" d="M72.7,30.1c0,4.8-6,8.6-13.4,8.6S46,34.9,46,30.1s6-10.3,13.4-10.3S72.7,25.4,72.7,30.1z"/>
			</g>
		</g>
		<g>
			<path class="st4" d="M65.1,25.7c0.6,0,1.1-0.5,1.1-1.1c0-0.6-0.5-1.1-1.1-1.1c-0.6,0-1.1,0.5-1.1,1.1c0,0.3,0.1,0.6,0.3,0.8
				l-0.9,2.1h-2.6c0,0.1,0,0.2,0,0.3c0,0.1,0,0.2,0,0.3h2.4l-0.7,1.7c-0.1,0-0.3,0-0.4,0.1l-1.7-1.7c0-0.1,0.1-0.3,0.1-0.4
				c0-0.6-0.5-1.1-1.1-1.1c-0.6,0-1.1,0.5-1.1,1.1c0,0.2,0,0.3,0.1,0.5l-1.4,1.6c-0.1,0-0.2,0-0.3,0c-0.6,0-1.1,0.5-1.1,1.1
				c0,0.1,0,0.3,0.1,0.4L53.8,33c-0.1,0-0.3-0.1-0.4-0.1c-0.6,0-1.1,0.5-1.1,1.1c0,0.6,0.5,1.1,1.1,1.1c0.6,0,1.1-0.5,1.1-1.1
				c0-0.1,0-0.3-0.1-0.4l1.7-1.7c0.1,0,0.3,0.1,0.4,0.1c0.6,0,1.1-0.5,1.1-1.1c0-0.2,0-0.3-0.1-0.5l1.4-1.6c0.1,0,0.2,0,0.3,0
				c0.1,0,0.3,0,0.4-0.1l1.7,1.7c0,0.1-0.1,0.3-0.1,0.4c0,0.6,0.5,1.1,1.1,1.1c0.6,0,1.1-0.5,1.1-1.1c0-0.3-0.1-0.6-0.3-0.8l0.9-2.1
				h3.4v-0.5h-3.2L65.1,25.7z M65.5,24.6c0,0.2-0.2,0.4-0.4,0.4c-0.2,0-0.4-0.2-0.4-0.4c0-0.2,0.2-0.4,0.4-0.4
				C65.3,24.2,65.5,24.4,65.5,24.6z M62.9,30.9c0,0.2-0.2,0.4-0.4,0.4c-0.2,0-0.4-0.2-0.4-0.4c0-0.2,0.2-0.4,0.4-0.4
				C62.7,30.4,62.9,30.6,62.9,30.9z M59.3,28.2c-0.2,0-0.4-0.2-0.4-0.4c0-0.2,0.2-0.4,0.4-0.4c0.2,0,0.4,0.2,0.4,0.4
				C59.7,28,59.5,28.2,59.3,28.2z M56.1,30.9c0-0.2,0.2-0.4,0.4-0.4s0.4,0.2,0.4,0.4c0,0.2-0.2,0.4-0.4,0.4S56.1,31.1,56.1,30.9z
				 M53,34c0-0.2,0.2-0.4,0.4-0.4s0.4,0.2,0.4,0.4s-0.2,0.4-0.4,0.4S53,34.2,53,34z"/>
			<path class="st4" d="M63.6,24.6c0-0.1,0-0.2,0-0.3H51.2v0.5h12.4C63.6,24.8,63.6,24.7,63.6,24.6z"/>
			<path class="st4" d="M66.6,24.3c0,0.1,0,0.2,0,0.3c0,0.1,0,0.2,0,0.3h1v-0.5H66.6z"/>
			<path class="st4" d="M57.8,27.7c0-0.1,0-0.2,0-0.3h-6.6V28h6.6C57.8,27.9,57.8,27.8,57.8,27.7z"/>
			<path class="st4" d="M64,30.9c0,0.1,0,0.2,0,0.3h3.6v-0.5h-3.6C63.9,30.7,64,30.8,64,30.9z"/>
			<path class="st4" d="M58,30.6c0,0.1,0,0.2,0,0.3c0,0.1,0,0.2,0,0.3h3c0-0.1,0-0.2,0-0.3c0-0.1,0-0.2,0-0.3H58z"/>
			<path class="st4" d="M55,30.9c0-0.1,0-0.2,0-0.3h-3.9v0.5H55C55,31.1,55,31,55,30.9z"/>
			<path class="st4" d="M51.2,33.7v0.5h0.8c0-0.1,0-0.2,0-0.3c0-0.1,0-0.2,0-0.3H51.2z"/>
			<path class="st4" d="M54.9,34c0,0.1,0,0.2,0,0.3h12.6v-0.5H54.9C54.9,33.8,54.9,33.9,54.9,34z"/>
			<circle class="st3" cx="65.1" cy="24.6" r="0.4"/>
			<path class="st3" d="M59.7,27.7c0-0.2-0.2-0.4-0.4-0.4c-0.2,0-0.4,0.2-0.4,0.4c0,0.2,0.2,0.4,0.4,0.4
				C59.5,28.2,59.7,28,59.7,27.7z"/>
			<path class="st3" d="M62,30.9c0,0.2,0.2,0.4,0.4,0.4c0.2,0,0.4-0.2,0.4-0.4c0-0.2-0.2-0.4-0.4-0.4C62.2,30.4,62,30.6,62,30.9z"/>
			<circle class="st3" cx="56.5" cy="30.9" r="0.4"/>
			<circle class="st3" cx="53.4" cy="34" r="0.4"/>
		</g>
	</g>
</g>
<g>
	<g>
		<path class="st2" d="M12.9,86.1v-1l0.8-0.1c0.2,0,0.2-0.1,0.2-0.2v-2.6h-3.4v2.6c0,0.2,0,0.2,0.2,0.2l0.8,0.1v1H7.6v-1l0.8-0.1
			c0.2,0,0.2-0.1,0.2-0.2v-6.4c0-0.2,0-0.2-0.2-0.2l-0.8-0.1v-1h3.9v1l-0.8,0.1c-0.2,0-0.2,0-0.2,0.2v2.4h3.4v-2.4
			c0-0.2,0-0.2-0.2-0.2l-0.8-0.1v-1h3.9v1L16,78.2c-0.2,0-0.2,0-0.2,0.2v6.4c0,0.2,0,0.2,0.2,0.2l0.8,0.1v1H12.9z"/>
		<path class="st2" d="M24.1,78.4c0-0.2,0-0.2-0.2-0.2l-0.8-0.1v-1h3.7v1L26,78.2c-0.2,0-0.2,0-0.2,0.2v4.5c0,2.4-1.4,3.4-3.5,3.4
			c-2.5,0-3.5-1.1-3.5-3.4v-4.4c0-0.2,0-0.2-0.2-0.2l-0.8-0.1v-1h3.9v1l-0.8,0.1c-0.2,0-0.2,0-0.2,0.2v4.1c0,1.4,0.3,2.2,1.7,2.2
			c1.3,0,1.8-0.6,1.8-2.2V78.4z"/>
		<path class="st2" d="M34.5,86.1v-1l1-0.1c0.2,0,0.2-0.1,0.2-0.2v-4.7h0l-1.8,4.2h-2l-1.8-4.3h-0.1v4.7c0,0.2,0,0.2,0.2,0.2
			l1.1,0.1v1h-3.8v-1l0.8-0.1c0.2,0,0.2-0.1,0.2-0.2v-6.4c0-0.2,0-0.2-0.2-0.2l-0.8-0.1v-1h3.3l2.2,5.6h0l2.3-5.6h3.2v1l-0.8,0.1
			c-0.2,0-0.2,0-0.2,0.2v6.4c0,0.2,0,0.2,0.2,0.2l0.8,0.1v1H34.5z"/>
		<path class="st2" d="M39.5,81.7c0-2.7,1.5-4.7,4.5-4.7c3,0,4.2,2,4.2,4.5c0,2.9-1.4,4.8-4.4,4.8C40.7,86.3,39.5,84.4,39.5,81.7z
			 M46.2,81.6c0-2.2-0.9-3.1-2.3-3.1c-1.4,0-2.4,0.9-2.4,3.1c0,2.2,0.9,3.1,2.4,3.1C45.2,84.8,46.2,83.9,46.2,81.6z"/>
		<path class="st2" d="M54.3,86.1L53.2,83c-0.1-0.4-0.3-0.6-0.7-0.6h-0.6v2.3c0,0.2,0,0.2,0.2,0.2l0.9,0.1v1h-4v-1l0.8-0.1
			C50,85,50,85,50,84.8v-6.4c0-0.2,0-0.2-0.2-0.2L49,78.1v-1h4.2c2.2,0,2.9,1.2,2.9,2.5c0,1.3-0.7,2-1.6,2.4c0.4,0.2,0.5,0.5,0.7,1
			l0.7,1.8C56,85,56.1,85,56.3,85l0.8,0.1v1H54.3z M52.5,81.2c0.9,0,1.7-0.2,1.7-1.4c0-1-0.5-1.2-1.6-1.2h-0.6v2.7H52.5z"/>
		<path class="st2" d="M64.8,79.8l-0.1-1c0-0.1-0.1-0.2-0.1-0.2c-0.2-0.1-0.5-0.1-0.9-0.1c-0.9,0-1.4,0.4-1.4,1.1
			c0,0.8,0.8,1,1.8,1.3c1.2,0.4,2.5,0.8,2.5,2.7c0,2-1.6,2.8-3.5,2.8c-1.1,0-2.4-0.3-2.9-0.5v-2.4h1.4l0.2,1.2c0,0.1,0,0.2,0.2,0.2
			c0.1,0,0.6,0.1,1,0.1c1,0,1.6-0.4,1.6-1.2c0-0.8-0.7-1-1.5-1.3c-1.2-0.3-2.8-0.7-2.8-2.7c0-1.9,1.4-2.8,3.3-2.8
			c1.1,0,2,0.3,2.6,0.5v2.4L64.8,79.8z"/>
		<path class="st2" d="M67.4,81.7c0-2.7,1.5-4.7,4.5-4.7c3,0,4.2,2,4.2,4.5c0,2.9-1.4,4.8-4.4,4.8C68.6,86.3,67.4,84.4,67.4,81.7z
			 M74.1,81.6c0-2.2-0.9-3.1-2.3-3.1c-1.4,0-2.4,0.9-2.4,3.1c0,2.2,0.9,3.1,2.4,3.1C73.1,84.8,74.1,83.9,74.1,81.6z"/>
		<path class="st2" d="M84.3,85.6c-0.7,0.4-2,0.7-3.1,0.7c-3.1,0-4.4-1.8-4.4-4.7c0-2.7,1.5-4.6,4.6-4.6c1,0,2.1,0.3,2.8,0.7v2.4
			L82.9,80l-0.2-1.2c0-0.1-0.1-0.2-0.2-0.2c-0.3-0.1-0.7-0.1-1.1-0.1c-1.6,0-2.6,1.1-2.6,3.2c0,2.2,1,3.3,2.5,3.3
			c0.4,0,0.9-0.1,1.2-0.2c0.1,0,0.2-0.1,0.2-0.3l0.2-1.2h1.3V85.6z"/>
		<path class="st2" d="M85.3,86.1v-1l0.9-0.1c0.2,0,0.2-0.1,0.2-0.2v-6.4c0-0.2,0-0.2-0.2-0.2l-0.9-0.1v-1h4.2v1l-1,0.1
			c-0.2,0-0.2,0-0.2,0.2v6.4c0,0.2,0,0.2,0.2,0.2l1,0.1v1H85.3z"/>
		<path class="st2" d="M95.4,86.1v-1l1-0.1L96,83.8h-3.1l-0.4,1.3l1,0.1v1h-3.5v-1l0.5-0.1c0.1,0,0.3-0.1,0.3-0.2l2.7-7.7h2.2
			l2.7,7.7c0,0.2,0.1,0.2,0.3,0.2l0.6,0.1v1H95.4z M94.5,79L94.5,79l-1.2,3.4h2.3L94.5,79z"/>
		<path class="st2" d="M99.8,86.1v-1l0.8-0.1c0.2,0,0.2-0.1,0.2-0.2v-6.4c0-0.2,0-0.2-0.2-0.2l-0.8-0.1v-1h4.1v1l-1,0.1
			c-0.2,0-0.2,0.1-0.2,0.2v6.4h2.2c0.1,0,0.2,0,0.2-0.1l0.2-1.2h1.4v2.7H99.8z"/>
	</g>
</g>
</svg>
