<?xml version="1.0" encoding="utf-8"?>
<!-- Generator: Adobe Illustrator 22.0.1, SVG Export Plug-In . SVG Version: 6.00 Build 0)  -->
<svg version="1.1" id="Capa_1" xmlns="http://www.w3.org/2000/svg" xmlns:xlink="http://www.w3.org/1999/xlink" x="0px" y="0px"
	 viewBox="0 0 350 350" style="enable-background:new 0 0 350 350;" xml:space="preserve">
<style type="text/css">
	.st0{fill:#222220;}
	.st1{font-family:'Montserrat-Medium';}
	.st2{font-size:43.8034px;}
	.st3{font-family:'Montserrat-Regular';}
	.st4{font-size:30.92px;}
	.st5{fill:none;stroke:#FFFFFF;stroke-width:4;stroke-miterlimit:10;}
	.st6{fill:#FFFFFF;}
	.st7{font-size:20.6134px;}
	.st8{fill:none;stroke:#FFFFFF;stroke-width:0.5;stroke-miterlimit:10;}
</style>
<g>
	<g>
		<text transform="matrix(1 0 0 1 168.5059 236.7419)"><tspan x="0" y="0" class="st0 st1 st2"> </tspan><tspan x="-87.9" y="33.2" class="st0 st3 st4">WAR ROOM</tspan></text>
		<circle class="st5" cx="175.5" cy="114.2" r="74"/>
		<g>
			<g>
				<g>
					<path class="st6" d="M145.8,149.6c-1,0-1.8-0.8-1.8-1.8v-13.6c0-0.5-0.4-0.9-0.9-0.9H135c-1,0-1.8-0.8-1.8-1.8v-10.8
						c0,0,0-0.1,0-0.2c0-0.2,0-0.4,0.1-0.6c0-0.1,0.1-0.1,0.1-0.1l0-0.1c0-0.1,0.1-0.2,0.1-0.2l16.2-21.7c0.3-0.5,0.9-0.7,1.5-0.7
						h3.9c0.2,0,0.5-0.1,0.6-0.3l30.9-31.4c0.3-0.3,0.8-0.5,1.3-0.5c0.5,0,1,0.2,1.3,0.5l20.1,20.4c0.7,0.7,0.7,1.9,0,2.6l-8,8.2
						c-0.3,0.3-0.3,0.9,0,1.2c0.1,0.1,0.1,0.1,0.2,0.2l16.2,21.6c0,0,0.1,0.1,0.1,0.2l0,0.1c0,0,0.1,0.1,0.1,0.1
						c0.1,0.2,0.1,0.4,0.1,0.6c0,0.1,0,0.1,0,0.2v10.8c0,1-0.8,1.8-1.8,1.8H208c-0.5,0-0.9,0.4-0.9,0.9v13.6c0,1-0.8,1.8-1.8,1.8
						H145.8z M148.5,133.4c-0.5,0-0.9,0.4-0.9,0.9v10.9c0,0.5,0.4,0.9,0.9,0.9h54.1c0.5,0,0.9-0.4,0.9-0.9v-10.9
						c0-0.5-0.4-0.9-0.9-0.9H148.5z M137.7,122.5c-0.5,0-0.9,0.4-0.9,0.9v5.4c0,0.5,0.4,0.9,0.9,0.9h75.7c0.5,0,0.9-0.4,0.9-0.9
						v-5.4c0-0.5-0.4-0.9-0.9-0.9H137.7z M152.5,100.8c-0.3,0-0.5,0.1-0.7,0.4l-12.2,16.3c-0.2,0.3-0.2,0.6-0.1,0.9
						c0.2,0.3,0.5,0.5,0.8,0.5h70.3c0.3,0,0.6-0.2,0.8-0.5c0.2-0.3,0.1-0.7-0.1-0.9l-12.2-16.3c-0.2-0.2-0.4-0.4-0.7-0.4h-1
						c-0.2,0-0.5,0.1-0.6,0.3l-5.6,5.7c-0.3,0.3-0.3,0.6-0.2,1c0.1,0.3,0.5,0.5,0.8,0.5h5.3c1,0,1.8,0.8,1.8,1.8s-0.8,1.8-1.8,1.8
						h-43.3c-1,0-1.8-0.8-1.8-1.8s0.8-1.8,1.8-1.8h7.6c0.4,0,0.7-0.2,0.8-0.5c0.1-0.3,0.1-0.7-0.2-1l-5.6-5.7
						c-0.2-0.2-0.4-0.3-0.6-0.3H152.5z M187.9,69.7c-0.2,0-0.5,0.1-0.6,0.3l-27.5,28c-0.3,0.3-0.3,0.9,0,1.2l8.7,8.8
						c0.2,0.2,0.4,0.3,0.6,0.3h15.2c0.2,0,0.5-0.1,0.6-0.3l20-20.3c0.3-0.3,0.3-0.9,0-1.2l-16.3-16.5
						C188.4,69.8,188.2,69.7,187.9,69.7z"/>
				</g>
				<g>
					<rect x="192.6" y="137.8" class="st6" width="3.6" height="3.7"/>
				</g>
				<g>
					<rect x="181.8" y="137.8" class="st6" width="3.6" height="3.7"/>
				</g>
				<g>
					<path class="st6" d="M172.8,98.4c-0.5,0-0.9-0.2-1.3-0.5c-0.7-0.7-0.7-1.9,0-2.6l13.5-13.6c0.3-0.3,0.8-0.5,1.3-0.5
						c0.5,0,0.9,0.2,1.3,0.5c0.7,0.7,0.7,1.9,0,2.6l-13.5,13.6C173.8,98.2,173.3,98.4,172.8,98.4z"/>
				</g>
			</g>
		</g>
		<text transform="matrix(1 0 0 1 80.2832 292.4694)"><tspan x="0" y="0" class="st6 st3 st7">Elecciones </tspan><tspan x="138.6" y="0" class="st0 st3 st7">2018</tspan></text>
		<text transform="matrix(1 0 0 1 116.7061 231.6042)"><tspan x="0" y="0" class="st0 st1 st2">WR</tspan><tspan x="81.2" y="0" class="st6 st1 st2">18</tspan><tspan x="125.6" y="0" class="st0 st3 st2"> </tspan></text>
	</g>
	<g>
		<path class="st8" d="M252.9,196.5c3,0,5.5,2.5,5.5,5.5c0,3-2.5,5.5-5.5,5.5c-3,0-5.4-2.5-5.4-5.5
			C247.4,198.9,249.9,196.5,252.9,196.5z"/>
		<path class="st6" d="M251.4,202.6c0,1,0,2,0,3c-0.4,0-0.8,0-1.1,0c0-2.4,0-4.7,0-7.1c0,0,0.1,0,0.1,0c1,0,2,0,3,0
			c0.4,0,0.8,0.1,1.1,0.2c0.6,0.2,1.1,0.9,1.2,1.6c0.1,1-0.7,1.9-1.6,2c-0.1,0-0.2,0-0.3,0.1c0,0,0,0,0,0c0.4,0.2,0.7,0.5,1,0.8
			c0.4,0.6,0.8,1.2,1.2,1.8c0.1,0.1,0.2,0.3,0.3,0.5c-0.1,0-0.1,0-0.1,0c-0.4,0-0.8,0-1.2,0c-0.1,0-0.1,0-0.2-0.1
			c-0.3-0.6-0.7-1.2-1-1.8c-0.2-0.3-0.4-0.5-0.6-0.7c-0.2-0.2-0.5-0.3-0.8-0.4C252,202.6,251.7,202.6,251.4,202.6z M251.4,201.6
			c0,0,0.1,0,0.1,0c0.5,0,1.1,0,1.6,0c0.2,0,0.4,0,0.6-0.1c0.4-0.1,0.6-0.3,0.7-0.7c0.1-0.4,0-0.7-0.3-1c-0.2-0.2-0.5-0.3-0.8-0.3
			c-0.6,0-1.3,0-1.9,0c0,0,0,0-0.1,0C251.4,200.2,251.4,200.9,251.4,201.6z"/>
	</g>
</g>
</svg>
